<?xml version="1.0" encoding="utf-8"?>
<!-- Generator: Adobe Illustrator 21.0.0, SVG Export Plug-In . SVG Version: 6.00 Build 0)  -->
<svg version="1.1" id="Capa_1" xmlns="http://www.w3.org/2000/svg" xmlns:xlink="http://www.w3.org/1999/xlink" x="0px" y="0px"
	 viewBox="0 0 1920 1080" style="enable-background:new 0 0 1920 1080;" xml:space="preserve">
<style type="text/css">
	.st0{clip-path:url(#SVGID_2_);fill:#161616;}
	.st1{fill:#141414;}
	.st2{fill:#191919;}
</style>
<g>
	<defs>
		<polygon id="SVGID_1_" points="1571,1080 0,1080 0,0 1915,0 		"/>
	</defs>
	<clipPath id="SVGID_2_">
		<use xlink:href="#SVGID_1_"  style="overflow:visible;"/>
	</clipPath>
	<polygon class="st0" points="1571,1080 0,1080 0,0 1915,0 	"/>
</g>
<g>
	<polygon class="st1" points="346.9,513.1 530.6,513.1 412.5,0 127.1,0 0,398.5 0,946.8 256.3,87.1 	"/>
	<polygon class="st1" points="924.5,847.1 1015,559.7 180.5,559.7 	"/>
	<polygon class="st1" points="164.8,607.5 23.2,1080 94.8,1080 425.6,706.8 	"/>
	<polygon class="st1" points="492.5,733.1 185.4,1080 269.6,1080 696.8,812.4 	"/>
	<polygon class="st1" points="762.9,837.2 379.4,1080 443.4,1080 871.7,879.1 	"/>
</g>
<g>
	<polygon class="st2" points="1647.1,0 1356.5,974.9 1265.9,548.9 1082.2,548.9 1204.4,1080 1480,1080 1824.3,0 	"/>
	<polygon class="st2" points="688.3,214.9 597.8,502.3 1432.3,502.3 	"/>
	<polygon class="st2" points="1448,454.5 1584.2,0 1502.1,0 1187.2,355.2 	"/>
	<polygon class="st2" points="1120.3,328.9 1411.5,0 1314.5,0 916,249.6 	"/>
	<polygon class="st2" points="849.9,224.8 1205,0 1131,0 741.1,182.9 	"/>
</g>
</svg>
