<?xml version="1.0" encoding="utf-8"?>
<!-- Generator: Adobe Illustrator 21.0.0, SVG Export Plug-In . SVG Version: 6.00 Build 0)  -->
<svg version="1.1" xmlns="http://www.w3.org/2000/svg" xmlns:xlink="http://www.w3.org/1999/xlink" x="0px" y="0px"
	 viewBox="0 0 288 288" style="enable-background:new 0 0 288 288;" xml:space="preserve">
<style type="text/css">
	.st0{display:none;}
	.st1{display:inline;fill:#191717;}
	.st2{fill:#00FFFF;}
	.st3{display:inline;}
	.st4{fill:#FFFFFF;}
</style>
<g id="Fondo" class="st0">
	<rect x="-954.2" y="-635.5" class="st1" width="1560" height="1242"/>
</g>
<g id="Layer_1">
	<g>
		<g>
			<path class="st2" d="M207.5,115.2v-2.7c0-0.6-0.3-1.2-0.8-1.5l-59.3-34.3c-1.1-0.7-2.5,0.2-2.5,1.5v131.4c0,1.3,1.4,2.1,2.5,1.5
				l59.3-34.3c0.5-0.3,0.8-0.9,0.8-1.5v-2.7V115.2z"/>
			<path class="st2" d="M258.2,111.5v63.3c0,0.9-0.8,1.7-1.7,1.7h-40.6c-0.9,0-1.7-0.8-1.7-1.7v-61.6c0-0.9,0.8-1.7,1.7-1.7H258.2"
				/>
		</g>
		<g>
			<path class="st2" d="M118,144c0-12.3,5.5-23.3,14.2-30.7c0.7-0.6,0.8-1.7,0.1-2.4l-10-10.8c-0.6-0.7-1.7-0.7-2.4-0.1
				c-12.3,10.7-20,26.5-20,44s7.8,33.3,20,44c0.7,0.6,1.7,0.5,2.4-0.1l10-10.8c0.6-0.7,0.6-1.8-0.1-2.4
				C123.5,167.3,118,156.3,118,144z"/>
			<path class="st2" d="M82.9,144c0-22.4,9.9-42.6,25.4-56.4c0.7-0.6,0.8-1.7,0.1-2.4l-10-10.8c-0.6-0.7-1.7-0.7-2.4-0.1
				C77,91.3,64.9,116.3,64.9,144s12.1,52.7,31.3,69.8c0.7,0.6,1.8,0.6,2.4-0.1l10-10.8c0.6-0.7,0.6-1.8-0.1-2.4
				C92.8,186.6,82.9,166.4,82.9,144z"/>
			<path class="st2" d="M47.8,144c0-32.6,14.2-62,36.7-82.2c0.7-0.6,0.8-1.7,0.1-2.4l-10-10.8c-0.6-0.7-1.7-0.7-2.4-0.1
				C46.2,72,29.8,106.1,29.8,144s16.4,72,42.5,95.6c0.7,0.6,1.8,0.6,2.4-0.1l10-10.8c0.6-0.7,0.6-1.8-0.1-2.4
				C62,206,47.8,176.6,47.8,144z"/>
		</g>
	</g>
</g>
<g id="Capa_3" class="st0">
</g>
</svg>
