<?xml version="1.0" encoding="utf-8"?>
<!-- Generator: Adobe Illustrator 21.0.0, SVG Export Plug-In . SVG Version: 6.00 Build 0)  -->
<svg version="1.1" xmlns="http://www.w3.org/2000/svg" xmlns:xlink="http://www.w3.org/1999/xlink" x="0px" y="0px"
	 viewBox="0 0 288 288" style="enable-background:new 0 0 288 288;" xml:space="preserve">
<style type="text/css">
	.st0{display:none;}
	.st1{display:inline;fill:#191717;}
	.st2{fill:#00FFFF;}
	.st3{display:inline;}
	.st4{fill:#FFFFFF;}
</style>
<g id="Fondo" class="st0">
	<rect x="-636.2" y="-635.5" class="st1" width="1560" height="1242"/>
</g>
<g id="Layer_1">
	<g>
		<path class="st2" d="M129.8,258H61.2c-0.9,0-1.7-0.8-1.7-1.7V31.7c0-0.9,0.8-1.7,1.7-1.7h68.7c0.9,0,1.7,0.8,1.7,1.7v224.6
			C131.6,257.2,130.8,258,129.8,258z"/>
		<path class="st2" d="M226.8,258h-68.7c-0.9,0-1.7-0.8-1.7-1.7V31.7c0-0.9,0.8-1.7,1.7-1.7h68.7c0.9,0,1.7,0.8,1.7,1.7v224.6
			C228.6,257.2,227.8,258,226.8,258z"/>
	</g>
</g>
<g id="Capa_3" class="st0">
</g>
</svg>
