<?xml version="1.0" encoding="utf-8"?>
<!-- Generator: Adobe Illustrator 21.0.0, SVG Export Plug-In . SVG Version: 6.00 Build 0)  -->
<svg version="1.1" xmlns="http://www.w3.org/2000/svg" xmlns:xlink="http://www.w3.org/1999/xlink" x="0px" y="0px"
	 viewBox="0 0 288 288" style="enable-background:new 0 0 288 288;" xml:space="preserve">
<style type="text/css">
	.st0{display:none;}
	.st1{display:inline;fill:#191717;}
	.st2{fill:#00FFFF;}
	.st3{display:inline;}
	.st4{fill:#FFFFFF;}
</style>
<g id="Fondo" class="st0">
	<rect x="-318.2" y="0.5" class="st1" width="1560" height="1242"/>
</g>
<g id="Layer_1">
	<g>
		<g>
			<path class="st2" d="M106.5,90.9c2.2,0,4.4,0.4,6.5,0.8c1.3,0.2,2.5,2.1,3.1,3.4c3.1,7.3,6.2,14.6,8.9,22.1
				c1.5,3.9-1.3,7.7-7.1,14.2c-1.8,2.1-2.2,4-0.8,6.4c9.2,15.7,22,27,39.1,33.7c0.8,0.3,1.5,0.4,2.1,0.4c1.5,0,2.7-0.7,3.8-2.1
				c7.3-8.8,9.4-12.6,12.3-12.6c0.7,0,1.5,0.2,2.5,0.7c22.7,10.9,24.5,11.3,24.6,13.9c0.6,18.3-15.3,25.5-26.1,25.5
				c-0.6,0-1.1,0-1.6-0.1c-22.1-0.8-57.1-18.2-80.9-60.1c-8.4-14.8-7.1-31.8,5.6-43.4C100.9,91.6,103.7,90.9,106.5,90.9z"/>
		</g>
		<g>
			<path class="st2" d="M256.1,122.1c10.9,62.5-30.5,121.7-92.5,132.6c-6.7,1.1-13.3,1.7-19.8,1.7c-17.5,0-34.4-4.1-50.7-12
				c-1.4-0.7-3.1-1-4.7-1c-0.8,0-1.6,0.1-2.3,0.3c-30,7.6-50,13.1-56.1,14.3c1.3-4.9,2.5-9.2,3.6-13.5c3.9-13.7,7.8-27.4,11.5-41.1
				c0.5-2.1,0.4-4.7-0.6-6.6C10.3,130.5,46.9,50.3,120,33.1c9-2.1,17.9-3.1,26.6-3.1C201.7,30,247.1,70.4,256.1,122.1z M159,236.5
				c51.4-8.2,86.9-56.2,79.4-107.4c-6.9-47.2-46.8-80.5-92.6-80.5c-5.7,0-11.4,0.5-17.2,1.6C65,61.9,30.7,132.7,61.9,188.8
				c3.5,6.2,4.4,11.3,1.9,17.9c-2.8,8-4.6,16.2-7.1,25.2c11.3-2.9,21.7-5.5,32-8.4c1-0.3,1.8-0.4,2.7-0.4c1.7,0,3.3,0.5,5,1.5
				c14.9,8.6,30.6,13.1,47.2,13.1C148.6,237.8,153.7,237.4,159,236.5"/>
		</g>
	</g>
</g>
<g id="Capa_3" class="st0">
</g>
</svg>
