<?xml version="1.0" encoding="utf-8"?>
<!-- Generator: Adobe Illustrator 21.0.0, SVG Export Plug-In . SVG Version: 6.00 Build 0)  -->
<svg version="1.1" xmlns="http://www.w3.org/2000/svg" xmlns:xlink="http://www.w3.org/1999/xlink" x="0px" y="0px"
	 viewBox="0 0 288 288" style="enable-background:new 0 0 288 288;" xml:space="preserve">
<style type="text/css">
	.st0{display:none;}
	.st1{display:inline;fill:#191717;}
	.st2{fill:#00FFFF;}
	.st3{display:inline;}
	.st4{fill:#FFFFFF;}
</style>
<g id="Fondo" class="st0">
	<rect x="-1272.2" y="0.5" class="st1" width="1560" height="1242"/>
</g>
<g id="Layer_1">
	<g>
		<path class="st2" d="M143.9,30c-38.3,0-74.4,11-106.2,30.5C45.6,143.8,86.1,215.6,144,258c57.9-42.4,98.4-114.1,106.2-197.5
			C218.4,41,182.2,30,143.9,30z M236.2,73.4c-0.6,4.2-1.3,8.4-2.1,12.7c-0.8,4.2-1.7,8.4-2.6,12.5c-1,4.1-2,8.2-3.2,12.3
			c-0.6,2-1.1,4.1-1.7,6.1c-2.7,9-6,17.9-9.6,26.5c-3.6,8.7-7.6,17-12.1,25.2c-2.2,4-4.4,7.9-6.8,11.8c-3.5,5.8-7.3,11.4-11.2,16.8
			c-2.6,3.6-5.4,7.2-8.1,10.6c-1.4,1.7-2.8,3.4-4.2,5.1c-1.2,1.4-2.3,2.7-3.5,4.1c-4.8,5.4-9.8,10.4-15,15.2c-3.9,3.6-7.9,7-12,10.3
			c-4.1-3.2-8.1-6.7-12-10.3c-5.2-4.8-10.2-9.9-15-15.2c-1.2-1.4-2.4-2.7-3.5-4.1c-2-2.3-3.9-4.7-5.9-7.1c-1.9-2.4-3.8-4.8-5.7-7.3
			c-1.8-2.5-3.6-5-5.4-7.6s-3.5-5.2-5.1-7.8l0,0l0,0c1.7,0.5,4.2,1.4,7.2,2.2c0.8,0.2,1.7,0.5,2.5,0.7c0.4,0.1,0.8,0.2,1.2,0.3
			c1,0.2,2,0.5,2.9,0.8c0.9,0.2,1.9,0.5,2.8,0.7c0.4,0.1,0.8,0.2,1.2,0.2c0.9,0.2,1.9,0.4,2.8,0.5c0.4,0.1,0.8,0.2,1.1,0.2
			c2.2,0.4,4.3,0.5,6.1,0.5c10.6,0,10.3-2.6,10.3-2.6v-28c0,0,0.2,0.1,0.5,0.3c0.2,0.2,0.5,0.3,0.8,0.5c0.3,0.2,0.8,0.5,1.2,0.7
			c0.5,0.2,0.9,0.5,1.4,0.9c1.1,0.6,2.3,1.4,3.5,2.1c1,0.5,2,1.1,3,1.7c0.7,0.4,1.4,0.8,2,1.1c0.7,0.4,1.4,0.8,2,1.1
			c1,0.5,2,1.1,2.9,1.6c0.6,0.3,1.2,0.6,1.8,0.9c0.6,0.3,1.1,0.5,1.6,0.8c0.5,0.2,0.9,0.4,1.4,0.5c0.6,0.2,1.1,0.4,1.4,0.4
			c0.6,0.1,1.2,0.1,1.9,0.2c0.1,0,0.2,0,0.2,0c0.6,0,1.3,0.1,1.9,0.1c0.1,0,0.2,0,0.2,0c0.5,0,0.9,0,1.4,0c0.1,0,0.2,0,0.3,0
			c0.5,0,1-0.1,1.4-0.1c0.1,0,0.1,0,0.2,0c0.5,0,1-0.1,1.4-0.2c0.1,0,0.2,0,0.2,0c0.5-0.1,1-0.2,1.5-0.2c0.1,0,0.2,0,0.3-0.1
			c0.5-0.1,1.1-0.2,1.5-0.3c0.1,0,0.2,0,0.2-0.1c0.5-0.1,1.1-0.2,1.6-0.4h0.1c0.5-0.2,1.1-0.3,1.7-0.5c0.1,0,0.2-0.1,0.3-0.1
			c0.5-0.2,1.1-0.3,1.6-0.5c0.1,0,0.2-0.1,0.3-0.1c0.5-0.2,1.1-0.4,1.7-0.6c0.1,0,0.1,0,0.2-0.1c0.5-0.2,1.1-0.5,1.6-0.7
			c0.1-0.1,0.2-0.1,0.3-0.2c0.5-0.2,1.1-0.5,1.6-0.8c0.1-0.1,0.2-0.1,0.3-0.2c0.5-0.3,1.1-0.5,1.7-0.8c0.1-0.1,0.2-0.1,0.2-0.2
			c0.5-0.3,1.1-0.6,1.6-0.9c0.1,0,0.1-0.1,0.2-0.1c0.5-0.4,1.1-0.7,1.6-1.1c0.1-0.1,0.2-0.2,0.3-0.2c0.5-0.4,1.1-0.8,1.6-1.2
			c0.1-0.1,0.2-0.2,0.3-0.2c0.5-0.5,1.1-0.9,1.6-1.4c1.7-1.5,3.2-3.1,4.4-4.7c1-1.3,1.7-2.6,2.4-3.8c0.2-0.3,0.3-0.6,0.5-1
			c0.3-0.6,0.6-1.3,0.8-1.9c0.2-0.6,0.5-1.2,0.7-1.8c0.1-0.3,0.2-0.6,0.3-0.8c0.5-1.4,0.8-2.7,0.9-3.8c0.1-0.5,0.2-0.9,0.2-1.3
			c0.2-2,0.2-3.2,0.2-3.2h5.4c0,0,0.5-0.4,1.1-1.1c0.3-0.3,0.7-0.6,1.1-1c0.6-0.6,1.4-1.4,2.2-2.2c0.3-0.3,0.7-0.7,1-1
			c1.2-1.2,2.4-2.5,3.5-3.8c0.3-0.4,0.7-0.8,1-1.1c1-1.1,1.8-2.1,2.5-2.9c3.6-4.7-1.7-6.1-1.7-6.1l-89.9-40.5l-33.6,2l57.2,35.2l0,0
			l0,0c0,0-0.2-0.1-0.4-0.2c-0.3-0.2-0.8-0.5-1.6-0.8c-0.9-0.5-2-1.1-3.5-1.8c-1.1-0.6-2.4-1.2-3.8-2c-0.4-0.2-0.7-0.4-1.1-0.5
			c-1.4-0.8-3-1.6-4.6-2.4c-0.4-0.2-0.8-0.5-1.2-0.7c-0.8-0.5-1.7-0.9-2.6-1.4c-1.1-0.6-2.3-1.2-3.5-1.8c-0.6-0.3-1.2-0.6-1.8-1
			c-0.5-0.2-0.9-0.5-1.4-0.8c-0.6-0.3-1.3-0.7-1.9-1c-0.8-0.4-1.6-0.8-2.3-1.2c-4.2-2.2-8.6-4.4-12.6-6.5c-1.4-0.7-2.6-1.4-3.9-2
			c-0.5-0.2-0.8-0.5-1.3-0.7c-1.7-0.8-3.2-1.7-4.7-2.4c-2.2-1.1-4.2-2.1-5.9-2.9c-0.5-0.3-1.1-0.5-1.5-0.8c-0.5-0.2-0.9-0.5-1.3-0.6
			c-0.6-0.3-1.1-0.5-1.4-0.7c-0.2-0.1-0.5-0.2-0.6-0.2c-0.2-0.1-0.3-0.1-0.5-0.2c-0.1,0-0.1,0-0.2,0c-0.1,0-0.2-0.1-0.3-0.1
			c-0.1,0-0.1,0-0.2,0c-0.1,0-0.2,0-0.2,0s-0.1,0-0.2,0c-0.1,0-0.2,0-0.2,0h-0.1c-0.2,0-0.4,0-0.5,0.1l0,0c-0.2,0-0.3,0.1-0.5,0.2
			h-0.1c-0.2,0.1-0.3,0.2-0.4,0.2c0,0-0.1,0-0.1,0.1c-0.2,0.1-0.2,0.2-0.4,0.2c0,0,0,0-0.1,0.1s-0.2,0.2-0.3,0.3l0,0
			c-0.1,0.1-0.2,0.2-0.2,0.3c0,0,0,0.1-0.1,0.1c-0.1,0.1-0.2,0.2-0.2,0.4c0,0,0,0.1-0.1,0.1c-0.1,0.2-0.2,0.2-0.2,0.4c0,0,0,0,0,0.1
			c-0.1,0.2-0.1,0.2-0.2,0.4c0,0,0,0,0,0.1c-0.1,0.2-0.1,0.2-0.1,0.4v0.1c0,0.1-0.1,0.2-0.1,0.3v0.1c0,0.1-0.1,0.2-0.1,0.3l0,0
			c0,0.1,0,0.2-0.1,0.2l0,0c0,0.1,0,0.2,0,0.2l0,0c0,0.1,0,0.1,0,0.2l0,0v0.1V103l36,18.8l36,18.8l16-16.1h34.5l0,0l0,0l-32.6,4.4
			l-8.4,8.7l-8.8,8.7L86,111.8v16.4l32.6,21.7l0,0l0,0l-6.5-3L98,140.5v6.6l10.6,7.9v17.3l0,0l-3.5-9.9l-29.4-7.8
			c-1.4-3-2.8-6.1-4.1-9.2c-1.3-3.1-2.6-6.2-3.8-9.3c-2.4-6.3-4.6-12.7-6.6-19.2c-1.8-6-3.5-12.2-4.9-18.4c-1-4.1-1.8-8.3-2.6-12.5
			c-1.2-6.3-2.1-12.6-2.9-19c1.7-0.9,3.3-1.8,5-2.7c3.3-1.7,6.7-3.4,10-4.9c8.4-3.8,17.1-7.1,25.9-9.7c17-5,34.5-7.5,52.1-7.5
			c13.2,0,26.4,1.4,39.4,4.2c4.3,0.9,8.6,2,12.8,3.2c1.7,0.5,3.5,1.1,5.3,1.7c5.3,1.7,10.5,3.6,15.6,5.8c1.7,0.8,3.4,1.5,5.1,2.3
			c3.4,1.6,6.8,3.2,10.1,5c1.7,0.9,3.3,1.8,5,2.7l0,0l0,0C236.7,69.2,236.5,71.3,236.2,73.4z M167.3,147c0-5.4,4.4-9.7,9.7-9.7
			s9.7,4.4,9.7,9.7c0,5.4-4.4,9.7-9.7,9.7S167.3,152.4,167.3,147z"/>
		<path class="st2" d="M181.8,146.6l0.1,0.4c0,0.2,0,0.2,0,0.4v0.2c0,0.1,0,0.2,0,0.2v0.4c0,0.5-0.2,1.1-0.2,1.6
			c-0.2,1.1-0.7,2.2-1.3,3.4c0.7-0.2,1.2-0.6,1.7-1.1c0.5-0.5,1-1,1.4-1.7c0.4-0.6,0.6-1.3,0.8-2c0.1-0.2,0.1-0.4,0.1-0.5
			s0.1-0.4,0.1-0.5s0-0.4,0-0.5l-0.1-0.5c-0.2-1.5-0.8-2.9-1.7-3.9c-0.5-0.5-1.1-1-1.7-1.3c-0.6-0.3-1.2-0.6-1.9-0.7
			c0.8,1.1,1.4,2.1,2,3.1C181.3,144.5,181.7,145.6,181.8,146.6z"/>
	</g>
</g>
<g id="Capa_3" class="st0">
</g>
</svg>
