<?xml version="1.0" encoding="utf-8"?>
<!-- Generator: Adobe Illustrator 21.0.0, SVG Export Plug-In . SVG Version: 6.00 Build 0)  -->
<svg version="1.1" xmlns="http://www.w3.org/2000/svg" xmlns:xlink="http://www.w3.org/1999/xlink" x="0px" y="0px"
	 viewBox="0 0 288 288" style="enable-background:new 0 0 288 288;" xml:space="preserve">
<style type="text/css">
	.st0{display:none;}
	.st1{display:inline;fill:#191717;}
	.st2{fill:#00FFFF;}
	.st3{display:inline;}
	.st4{fill:#FFFFFF;}
</style>
<g id="Fondo" class="st0">
	<rect x="-954.2" y="0.5" class="st1" width="1560" height="1242"/>
</g>
<g id="Layer_1">
	<g>
		<path class="st2" d="M134.1,208.4c-8.1-3.4-14.9-8.1-20.7-14.1c-5.7-6-10.2-13.4-13.5-21.9c-3.2-8.6-4.8-18.1-4.8-28.5
			c0-10.2,1.6-19.6,4.8-28.2c0.1-0.3,0.2-0.5,0.4-0.8l-36-36c-4.3,6.2-7.9,12.8-10.9,20c-5.8,13.9-8.8,28.9-8.8,45
			c0,16.1,2.9,31.1,8.8,45c5.8,13.9,14,26,24.6,36.5c10.5,10.4,22.9,18.6,37,24.2c12.7,5.1,26.4,7.9,41.1,8.4v-44.8
			C148.3,212.7,140.9,211.1,134.1,208.4z"/>
		<path class="st2" d="M134.1,79.7c8.1-3.2,16.9-4.8,26.5-4.8c10.9,0,20.4,1.8,28.7,5.3c8.3,3.6,15.3,8.4,21.2,14.7l32.9-33.2
			c-10.2-9.8-22.2-17.5-35.9-23.2c-13.7-5.6-29.2-8.4-46.9-8.4c-16.5,0-31.8,2.9-45.9,8.7c-8.8,3.6-16.9,8.2-24.2,13.5l33.1,33.1
			C126.8,83.1,130.4,81.2,134.1,79.7z"/>
		<circle class="st2" cx="162.1" cy="144" r="45"/>
	</g>
</g>
<g id="Capa_3" class="st0">
</g>
</svg>
