<?xml version="1.0" encoding="utf-8"?>
<!-- Generator: Adobe Illustrator 21.0.0, SVG Export Plug-In . SVG Version: 6.00 Build 0)  -->
<svg version="1.1" xmlns="http://www.w3.org/2000/svg" xmlns:xlink="http://www.w3.org/1999/xlink" x="0px" y="0px"
	 viewBox="0 0 288 288" style="enable-background:new 0 0 288 288;" xml:space="preserve">
<style type="text/css">
	.st0{display:none;}
	.st1{display:inline;fill:#191717;}
	.st2{fill:#00FFFF;}
	.st3{display:inline;}
	.st4{fill:#FFFFFF;}
</style>
<g id="Fondo" class="st0">
	<rect x="-1272.2" y="-635.5" class="st1" width="1560" height="1242"/>
</g>
<g id="Layer_1">
	<g>
		<g>
			<path class="st2" d="M207.5,115.2v-2.7c0-0.6-0.3-1.2-0.8-1.5l-59.3-34.3c-1.1-0.7-2.5,0.2-2.5,1.5v131.4c0,1.3,1.4,2.1,2.5,1.5
				l59.3-34.3c0.5-0.3,0.8-0.9,0.8-1.5v-2.7V115.2z"/>
			<path class="st2" d="M258.2,111.5v63.3c0,0.9-0.8,1.7-1.7,1.7h-40.6c-0.9,0-1.7-0.8-1.7-1.7v-61.6c0-0.9,0.8-1.7,1.7-1.7H258.2"
				/>
		</g>
		<path class="st2" d="M132.7,101.9l-8.9-8.9c-0.7-0.7-1.7-0.7-2.4,0l-38.5,38.5c-0.7,0.7-1.7,0.7-2.4,0L41.9,92.9
			c-0.7-0.7-1.7-0.7-2.4,0l-8.9,8.9c-0.7,0.7-0.7,1.7,0,2.4l38.5,38.5c0.7,0.7,0.7,1.7,0,2.4l-38.5,38.5c-0.7,0.7-0.7,1.7,0,2.4
			l8.9,8.9c0.7,0.7,1.7,0.7,2.4,0l38.5-38.5c0.7-0.7,1.7-0.7,2.4,0l38.5,38.5c0.7,0.7,1.7,0.7,2.4,0l8.9-8.9c0.7-0.7,0.7-1.7,0-2.4
			l-38.5-38.5c-0.7-0.7-0.7-1.7,0-2.4l38.5-38.5C133.3,103.6,133.3,102.5,132.7,101.9z"/>
	</g>
</g>
<g id="Capa_3" class="st0">
</g>
</svg>
