<?xml version="1.0" encoding="utf-8"?>
<!-- Generator: Adobe Illustrator 21.0.0, SVG Export Plug-In . SVG Version: 6.00 Build 0)  -->
<svg version="1.1" xmlns="http://www.w3.org/2000/svg" xmlns:xlink="http://www.w3.org/1999/xlink" x="0px" y="0px"
	 viewBox="0 0 288 288" style="enable-background:new 0 0 288 288;" xml:space="preserve">
<style type="text/css">
	.st0{display:none;}
	.st1{display:inline;fill:#191717;}
	.st2{fill:#00FFFF;}
	.st3{display:inline;}
	.st4{fill:#FFFFFF;}
</style>
<g id="Fondo" class="st0">
	<rect x="-954.2" y="-953.5" class="st1" width="1560" height="1242"/>
</g>
<g id="Layer_1">
	<g>
		<path class="st2" d="M67.7,37.4c4.3,0,8.8,0.8,13.1,1.5c2.6,0.3,5,4.1,6.3,6.9C93.3,60.4,99.5,75,104.9,90
			c3,7.9-2.5,15.5-14.1,28.5c-3.6,4.1-4.4,8.1-1.6,12.9c18.3,31.5,44.1,54.1,78.2,67.5c1.5,0.6,3,0.9,4.3,0.9c2.9,0,5.3-1.4,7.6-4.1
			c14.6-17.6,18.7-25.3,24.6-25.3c1.5,0,3.1,0.5,4.9,1.4c45.6,21.8,49.2,22.7,49.3,27.8c1.2,36.6-30.7,51-52.3,51
			c-1.1,0-2.2,0-3.3-0.1c-44.2-1.5-114.4-36.4-162-120.3c-16.8-29.7-14.1-63.6,11.1-87C56.5,38.7,62,37.4,67.7,37.4z"/>
	</g>
</g>
<g id="Capa_3" class="st0">
</g>
</svg>
