<?xml version="1.0" encoding="utf-8"?>
<!-- Generator: Adobe Illustrator 21.0.0, SVG Export Plug-In . SVG Version: 6.00 Build 0)  -->
<svg version="1.1" xmlns="http://www.w3.org/2000/svg" xmlns:xlink="http://www.w3.org/1999/xlink" x="0px" y="0px"
	 viewBox="0 0 288 288" style="enable-background:new 0 0 288 288;" xml:space="preserve">
<style type="text/css">
	.st0{display:none;}
	.st1{display:inline;fill:#191717;}
	.st2{fill:#FFFFFF;}
	.st3{display:inline;}
</style>
<g id="Fondo" class="st0">
	<rect x="-636.2" y="-953.5" class="st1" width="1560" height="1242"/>
</g>
<g id="Layer_1">
	<g>
		<path class="st2" d="M105.6,257.5H62.8c-0.7,0-1.2-0.5-1.2-1.2v-93.5c0-0.7,0.5-1.2,1.2-1.2h42.8c0.7,0,1.2,0.5,1.2,1.2v93.5
			C106.8,257,106.2,257.5,105.6,257.5z"/>
		<path class="st2" d="M236.2,257.5h-42.8c-0.7,0-1.2-0.5-1.2-1.2V31.7c0-0.7,0.5-1.2,1.2-1.2h42.8c0.7,0,1.2,0.5,1.2,1.2v224.6
			C237.4,257,236.9,257.5,236.2,257.5z"/>
		<path class="st2" d="M170.9,257.5h-42.8c-0.7,0-1.2-0.5-1.2-1.2V107.7c0-0.7,0.5-1.2,1.2-1.2h42.8c0.7,0,1.2,0.5,1.2,1.2v148.6
			C172.1,257,171.5,257.5,170.9,257.5z"/>
		<path class="st2" d="M84.2,37.5v13.6c0,0.7,0.5,1.2,1.2,1.2h23.7c1.1,0,1.6,1.4,0.8,2.1l-79.7,71.9c-0.5,0.4-0.5,1.2-0.1,1.7
			l9.1,10.1c0.4,0.5,1.2,0.5,1.7,0.1l79.7-71.8c0.8-0.7,2-0.1,2,0.9v23c0,0.7,0.5,1.2,1.2,1.2h13.6c0.7,0,1.2-0.5,1.2-1.2V37.5
			c0-0.7-0.5-1.2-1.2-1.2H85.4C84.7,36.3,84.2,36.8,84.2,37.5z"/>
	</g>
</g>
<g id="Capa_3" class="st0">
</g>
</svg>
