<?xml version="1.0" encoding="utf-8"?>
<!-- Generator: Adobe Illustrator 21.0.0, SVG Export Plug-In . SVG Version: 6.00 Build 0)  -->
<svg version="1.1" xmlns="http://www.w3.org/2000/svg" xmlns:xlink="http://www.w3.org/1999/xlink" x="0px" y="0px"
	 viewBox="0 0 288 288" style="enable-background:new 0 0 288 288;" xml:space="preserve">
<style type="text/css">
	.st0{display:none;}
	.st1{display:inline;fill:#191717;}
	.st2{fill:#FFFFFF;}
	.st3{display:inline;}
</style>
<g id="Fondo" class="st0">
	<rect x="-636.2" y="0.5" class="st1" width="1560" height="1242"/>
</g>
<g id="Layer_1">
	<g>
		<g>
			<path class="st2" d="M205.2,69.7c0.1,0,0.1,0,0.2,0c7.5,0,13.6,6.1,13.5,13.7c-0.1,7.5-6.2,13.6-13.8,13.6
				c-7.6-0.1-13.6-6.2-13.5-13.7C191.6,75.8,197.7,69.7,205.2,69.7z"/>
		</g>
		<g>
			<path class="st2" d="M256.6,87.3c1.7,17.9,2.8,102.7-2.5,122.6c-7.1,26-24,41.4-50.3,45.6c-9.8,1.6-36.4,2.5-62.9,2.5
				c-27.1,0-54.2-1-63.3-3.4c-25.9-6.7-41.3-23.5-45.4-49.7c-3.1-19.2-3.4-108.6,2.2-128C41.6,51.7,58.5,36.8,84,32.6
				c11.6-1.9,34.2-2.6,57.1-2.6c21.3,0,42.7,0.6,55.7,1.3c15.6,0.8,30,5.9,41.6,17C249.5,59,255.2,72.3,256.6,87.3z M234.7,201.1
				c3.3-20,3.3-93.2,1.4-111.9c-2-20-14.3-33.2-34.1-36.3c-9.8-1.5-33.5-2.2-57-2.2c-22.7,0-45.3,0.6-55.2,1.7
				c-19.9,2.3-33.2,14.6-36.4,34.3c-3.3,21-3.2,99.3-0.8,115.1c2.5,16.4,11.8,27.6,28.1,32.2c8.8,2.5,35.3,3.4,61.3,3.4
				c23.9,0,47.4-0.8,56.2-1.7C218.2,233.4,231.5,221.1,234.7,201.1"/>
		</g>
		<g>
			<path class="st2" d="M144.5,85.6c32.2,0,58.2,26.2,58,58.5c-0.2,32.2-26.6,58.4-58.9,58.4c-32.3,0-58.2-26.2-58-58.5
				C85.8,111.7,112.2,85.5,144.5,85.6z M143.6,181.8c20.7,0,37.8-16.7,38.1-37.4c0.3-21-16.3-38-37.1-38.2c-0.1,0-0.2,0-0.3,0
				c-20.7,0-37.8,16.7-38.1,37.4c-0.3,20.9,16.3,38,37.1,38.2C143.4,181.8,143.5,181.8,143.6,181.8"/>
		</g>
	</g>
</g>
<g id="Capa_3" class="st0">
</g>
</svg>
