<?xml version="1.0" encoding="utf-8"?>
<!-- Generator: Adobe Illustrator 21.0.0, SVG Export Plug-In . SVG Version: 6.00 Build 0)  -->
<svg version="1.1" xmlns="http://www.w3.org/2000/svg" xmlns:xlink="http://www.w3.org/1999/xlink" x="0px" y="0px"
	 viewBox="0 0 288 288" style="enable-background:new 0 0 288 288;" xml:space="preserve">
<style type="text/css">
	.st0{display:none;}
	.st1{display:inline;fill:#191717;}
	.st2{fill:#FFFFFF;}
	.st3{display:inline;}
</style>
<g id="Fondo" class="st0">
	<rect x="-318.2" y="-317.5" class="st1" width="1560" height="1242"/>
</g>
<g id="Layer_1">
	<g>
		<g>
			<g>
				<path class="st2" d="M136.4,118.9l-0.8-87.6c0-0.7,0.5-1.2,1.2-1.2l13.6-0.1c0.7,0,1.2,0.5,1.2,1.2l0.8,87.6
					c0,0.7-0.5,1.2-1.2,1.2l-13.6,0.1C136.9,120.1,136.4,119.5,136.4,118.9z"/>
			</g>
			<g>
				<path class="st2" d="M168.1,151.2l-0.1-13.6c0-0.7,0.5-1.2,1.2-1.2l87.6-0.8c0.7,0,1.2,0.5,1.2,1.2l0.1,13.6
					c0,0.7-0.5,1.2-1.2,1.2l-87.6,0.8C168.6,152.4,168.1,151.9,168.1,151.2z"/>
			</g>
			<g>
				<path class="st2" d="M136.4,256.9l-0.8-87.6c0-0.7,0.5-1.2,1.2-1.2l13.6-0.1c0.7,0,1.2,0.5,1.2,1.2l0.8,87.6
					c0,0.7-0.5,1.2-1.2,1.2l-13.6,0.1C137,258.1,136.4,257.5,136.4,256.9z"/>
			</g>
			<g>
				<path class="st2" d="M30.1,151.2l-0.1-13.6c0-0.7,0.5-1.2,1.2-1.2l87.6-0.8c0.7,0,1.2,0.5,1.2,1.2l0.1,13.6
					c0,0.7-0.5,1.2-1.2,1.2l-87.6,0.8C30.6,152.4,30.1,151.9,30.1,151.2z"/>
			</g>
		</g>
		<g>
			<g>
				<path class="st2" d="M144,206.3c-34.4,0-62.3-28-62.3-62.3s28-62.3,62.3-62.3s62.3,28,62.3,62.3S178.4,206.3,144,206.3z
					 M144,97.7c-25.5,0-46.3,20.8-46.3,46.3c0,25.5,20.8,46.3,46.3,46.3c25.5,0,46.3-20.8,46.3-46.3
					C190.3,118.5,169.5,97.7,144,97.7z"/>
			</g>
			<g>
				<path class="st2" d="M144,239.7c-52.8,0-95.7-42.9-95.7-95.7c0-52.8,42.9-95.7,95.7-95.7c52.8,0,95.7,42.9,95.7,95.7
					C239.7,196.7,196.8,239.7,144,239.7z M144,64.3c-43.9,0-79.7,35.7-79.7,79.7c0,43.9,35.7,79.7,79.7,79.7
					c43.9,0,79.7-35.7,79.7-79.7C223.7,100.1,187.9,64.3,144,64.3z"/>
			</g>
		</g>
	</g>
</g>
<g id="Capa_3" class="st0">
</g>
</svg>
