<?xml version="1.0" encoding="utf-8"?>
<!-- Generator: Adobe Illustrator 21.0.0, SVG Export Plug-In . SVG Version: 6.00 Build 0)  -->
<svg version="1.1" xmlns="http://www.w3.org/2000/svg" xmlns:xlink="http://www.w3.org/1999/xlink" x="0px" y="0px"
	 viewBox="0 0 288 288" style="enable-background:new 0 0 288 288;" xml:space="preserve">
<style type="text/css">
	.st0{display:none;}
	.st1{display:inline;fill:#191717;}
	.st2{fill:#FFFFFF;}
	.st3{display:inline;}
</style>
<g id="Fondo" class="st0">
	<rect x="-954.2" y="-317.5" class="st1" width="1560" height="1242"/>
</g>
<g id="Layer_1">
	<g>
		<path class="st2" d="M148.6,235L148.6,235L148.6,235L148.6,235z"/>
	</g>
	<g>
		<path class="st2" d="M70.8,108.3l45.4,78.6c0.1,0.2,0.2,0.4,0.2,0.6v69.1c0,0.8,0.7,1.4,1.5,1.2l53-12.6c0.5-0.1,0.9-0.6,0.9-1.2
			v-56.6c0-0.2,0.1-0.4,0.2-0.6l45.4-78.6c0.5-0.8-0.1-1.8-1-1.8H71.8C70.9,106.5,70.3,107.5,70.8,108.3z M99.5,122.5h89
			c0.9,0,1.5,1,1,1.8l-30.1,52.1c-0.2,0.4-0.6,0.6-1,0.6h-28.8c-0.4,0-0.8-0.2-1-0.6l-30.1-52.1C98,123.5,98.6,122.5,99.5,122.5z
			 M155.7,231.4c0,0.6-0.4,1-0.9,1.2l-10.8,2.6l0,0l0,0l-10.2,2.4c-0.8,0.2-1.5-0.4-1.5-1.2v-42.2c0-0.7,0.5-1.2,1.2-1.2h21
			c0.7,0,1.2,0.5,1.2,1.2V231.4z"/>
		<circle class="st2" cx="141.6" cy="46.1" r="15.9"/>
		<circle class="st2" cx="103.4" cy="81.4" r="15.9"/>
		<circle class="st2" cx="144" cy="106.5" r="15.9"/>
		<circle class="st2" cx="186" cy="77.9" r="15.9"/>
	</g>
</g>
<g id="Capa_3" class="st0">
</g>
</svg>
