<?xml version="1.0" encoding="utf-8"?>
<!-- Generator: Adobe Illustrator 21.0.0, SVG Export Plug-In . SVG Version: 6.00 Build 0)  -->
<svg version="1.1" xmlns="http://www.w3.org/2000/svg" xmlns:xlink="http://www.w3.org/1999/xlink" x="0px" y="0px"
	 viewBox="0 0 288 288" style="enable-background:new 0 0 288 288;" xml:space="preserve">
<style type="text/css">
	.st0{display:none;}
	.st1{display:inline;fill:#191717;}
	.st2{fill:#FFFFFF;}
	.st3{display:inline;}
</style>
<g id="Fondo" class="st0">
	<rect x="-0.2" y="0.5" class="st1" width="1560" height="1242"/>
</g>
<g id="Layer_1">
	<g>
		<path class="st2" d="M174,30c6.1,0,12.2,0.3,18.3,0.6c4,0.2,7.9,0.7,11.7,1.1l-0.3,36.7c-1.1,0-2,0-2.9,0c-4,0-8.1-0.1-12.1-0.1
			c-3,0-6,0-9.1,0.1c-9.7,0.3-16.9,4-17.4,16.1c-0.3,8.8-0.5,28.1-0.5,29.1c0.5,0,10.1,0,19.8,0c4.8,0,9.6,0,12.9,0c2.5,0,5,0,7.9,0
			c-2,14.1-3.8,27.6-5.7,41.2h-34.8l-0.8,103h-42.7l0.8-103.2H84l0.3-41h35.1l0-3.1c0.1-8.3,0-16.5,0.3-24.8
			c0.1-5.2,0.4-10.5,1.3-15.7c2.4-12.6,8.2-23.1,18.7-30.6c9.2-6.6,19.7-9.3,30.8-9.6C171.7,30,172.8,30,174,30z"/>
	</g>
</g>
<g id="Capa_3" class="st0">
</g>
</svg>
