<?xml version="1.0" encoding="utf-8"?>
<!-- Generator: Adobe Illustrator 25.1.0, SVG Export Plug-In . SVG Version: 6.00 Build 0)  -->
<svg version="1.1" xmlns="http://www.w3.org/2000/svg" xmlns:xlink="http://www.w3.org/1999/xlink" x="0px" y="0px"
	 viewBox="0 0 160 60" style="enable-background:new 0 0 160 60;" xml:space="preserve">
<style type="text/css">
	.st0{fill:#FEE21F;}
	.st1{fill:#141414;}
	.st2{fill:#FFFFFF;}
	.st3{fill:#8A8A9B;}
	.st4{display:none;}
	.st5{display:inline;}
	.st6{fill:#E0E1FF;}
</style>
<g id="Logos">
	<g id="FondoNegro">
		<g>
			<path class="st0" d="M62.25,50.08c-0.4,0-0.77-0.07-1.11-0.22c-0.34-0.15-0.64-0.35-0.89-0.61c-0.25-0.26-0.45-0.57-0.58-0.91
				c-0.14-0.35-0.21-0.72-0.21-1.12s0.07-0.77,0.21-1.12c0.14-0.35,0.33-0.65,0.58-0.91c0.25-0.26,0.54-0.46,0.88-0.6
				c0.34-0.15,0.7-0.22,1.1-0.22c0.42,0,0.8,0.08,1.14,0.23c0.34,0.15,0.63,0.36,0.88,0.62l-0.4,0.4c-0.19-0.21-0.43-0.38-0.7-0.5
				s-0.58-0.18-0.92-0.18c-0.31,0-0.6,0.06-0.86,0.17c-0.26,0.11-0.49,0.27-0.69,0.48c-0.2,0.21-0.35,0.45-0.45,0.72
				c-0.1,0.28-0.16,0.58-0.16,0.91c0,0.33,0.05,0.63,0.16,0.91s0.26,0.52,0.45,0.73s0.42,0.37,0.68,0.48
				c0.26,0.11,0.55,0.17,0.86,0.17c0.35,0,0.67-0.06,0.95-0.19c0.28-0.12,0.51-0.29,0.7-0.51l0.4,0.41
				c-0.25,0.26-0.54,0.47-0.89,0.62C63.06,50,62.67,50.08,62.25,50.08z"/>
			<path class="st0" d="M66.75,50.08c-0.37,0-0.7-0.09-1-0.27c-0.3-0.18-0.53-0.42-0.71-0.72s-0.26-0.64-0.26-1.01
				c0-0.37,0.09-0.7,0.26-0.99c0.17-0.29,0.41-0.53,0.71-0.71c0.3-0.17,0.63-0.26,1-0.26c0.37,0,0.7,0.09,1,0.26
				s0.53,0.41,0.71,0.71c0.17,0.3,0.26,0.63,0.26,1c0,0.38-0.09,0.71-0.26,1.01c-0.17,0.3-0.41,0.54-0.71,0.71
				C67.46,49.99,67.12,50.08,66.75,50.08z M66.75,49.53c0.27,0,0.51-0.06,0.71-0.19c0.21-0.12,0.37-0.3,0.49-0.52
				c0.12-0.22,0.18-0.47,0.18-0.74c0-0.27-0.06-0.52-0.18-0.73c-0.12-0.21-0.28-0.38-0.49-0.5c-0.21-0.12-0.44-0.19-0.71-0.19
				c-0.26,0-0.5,0.06-0.71,0.19c-0.21,0.12-0.37,0.29-0.49,0.5c-0.12,0.21-0.18,0.46-0.18,0.73c0,0.28,0.06,0.53,0.18,0.75
				s0.28,0.39,0.49,0.51C66.25,49.47,66.49,49.53,66.75,49.53z"/>
			<path class="st0" d="M69.61,50v-3.79h0.56V50H69.61z M72.37,50v-2.22c0-0.33-0.1-0.6-0.29-0.81c-0.2-0.21-0.46-0.31-0.78-0.31
				c-0.22,0-0.41,0.05-0.58,0.14c-0.17,0.1-0.3,0.23-0.4,0.39c-0.1,0.17-0.15,0.36-0.15,0.57l-0.26-0.15c0-0.28,0.07-0.54,0.2-0.76
				s0.32-0.4,0.54-0.53c0.23-0.13,0.49-0.19,0.79-0.19c0.29,0,0.55,0.07,0.77,0.21s0.4,0.33,0.53,0.56
				c0.13,0.24,0.19,0.49,0.19,0.77V50H72.37z"/>
			<path class="st0" d="M75.15,50.08c-0.2,0-0.4-0.03-0.59-0.08s-0.36-0.14-0.51-0.24c-0.15-0.1-0.29-0.22-0.4-0.36l0.36-0.37
				c0.15,0.18,0.32,0.32,0.51,0.41c0.19,0.09,0.4,0.13,0.64,0.13c0.25,0,0.45-0.05,0.59-0.15c0.14-0.1,0.21-0.23,0.21-0.4
				c0-0.16-0.05-0.29-0.15-0.38c-0.1-0.09-0.23-0.16-0.39-0.22c-0.16-0.05-0.33-0.11-0.5-0.16c-0.18-0.05-0.35-0.12-0.51-0.19
				c-0.16-0.08-0.29-0.19-0.39-0.33c-0.1-0.14-0.15-0.32-0.15-0.55c0-0.21,0.05-0.4,0.16-0.56c0.1-0.16,0.25-0.28,0.45-0.37
				c0.2-0.09,0.43-0.13,0.7-0.13c0.28,0,0.54,0.05,0.77,0.15c0.23,0.1,0.42,0.25,0.56,0.45l-0.36,0.36
				c-0.11-0.14-0.25-0.26-0.42-0.33c-0.17-0.08-0.36-0.12-0.57-0.12c-0.24,0-0.43,0.05-0.55,0.14c-0.13,0.09-0.19,0.22-0.19,0.37
				c0,0.15,0.05,0.26,0.15,0.34c0.1,0.08,0.23,0.15,0.39,0.2c0.16,0.05,0.33,0.1,0.5,0.15c0.18,0.05,0.35,0.12,0.51,0.2
				s0.29,0.2,0.39,0.34c0.1,0.14,0.15,0.33,0.15,0.58c0,0.34-0.12,0.61-0.37,0.81S75.57,50.08,75.15,50.08z"/>
			<path class="st0" d="M77.04,46.72v-0.51h2.47v0.51H77.04z M78,50v-5.38h0.56V50H78z"/>
			<path class="st0" d="M80.29,50v-3.79h0.56V50H80.29z M80.85,47.79l-0.23-0.11c0-0.48,0.12-0.86,0.35-1.14s0.55-0.42,0.96-0.42
				c0.19,0,0.36,0.03,0.51,0.1c0.16,0.07,0.3,0.17,0.44,0.32l-0.37,0.4c-0.09-0.1-0.19-0.17-0.3-0.22s-0.24-0.06-0.37-0.06
				c-0.29,0-0.53,0.1-0.71,0.29S80.85,47.42,80.85,47.79z"/>
			<path class="st0" d="M84.97,50.08c-0.31,0-0.58-0.07-0.82-0.21c-0.24-0.14-0.43-0.34-0.57-0.58s-0.21-0.54-0.21-0.87v-2.2h0.57
				v2.17c0,0.23,0.04,0.43,0.12,0.6s0.2,0.31,0.36,0.4c0.16,0.1,0.34,0.15,0.54,0.15c0.32,0,0.57-0.1,0.75-0.31
				c0.19-0.21,0.28-0.49,0.28-0.84v-2.17h0.56v2.2c0,0.33-0.07,0.62-0.2,0.87c-0.13,0.25-0.32,0.45-0.56,0.59
				C85.56,50.01,85.29,50.08,84.97,50.08z"/>
			<path class="st0" d="M89.35,50.08c-0.37,0-0.71-0.09-1-0.26c-0.3-0.17-0.53-0.41-0.71-0.71s-0.26-0.64-0.26-1.01
				c0-0.37,0.09-0.71,0.26-1s0.41-0.53,0.71-0.71s0.63-0.26,1-0.26c0.28,0,0.55,0.05,0.8,0.16s0.46,0.26,0.63,0.45l-0.37,0.38
				c-0.13-0.14-0.29-0.26-0.47-0.33c-0.18-0.08-0.38-0.12-0.59-0.12c-0.27,0-0.51,0.06-0.72,0.19c-0.21,0.12-0.37,0.29-0.49,0.5
				c-0.12,0.21-0.18,0.46-0.18,0.74c0,0.27,0.06,0.52,0.18,0.74s0.28,0.39,0.49,0.51c0.21,0.12,0.45,0.19,0.72,0.19
				c0.21,0,0.41-0.04,0.6-0.12s0.34-0.19,0.47-0.33l0.38,0.38c-0.18,0.2-0.39,0.35-0.64,0.46C89.9,50.03,89.63,50.08,89.35,50.08z"
				/>
			<path class="st0" d="M93.23,50.08c-0.37,0-0.71-0.09-1-0.26c-0.3-0.17-0.53-0.41-0.71-0.71s-0.26-0.64-0.26-1.01
				c0-0.37,0.09-0.71,0.26-1s0.41-0.53,0.71-0.71s0.63-0.26,1-0.26c0.28,0,0.55,0.05,0.8,0.16s0.46,0.26,0.63,0.45l-0.37,0.38
				c-0.13-0.14-0.29-0.26-0.47-0.33c-0.18-0.08-0.38-0.12-0.59-0.12c-0.27,0-0.51,0.06-0.72,0.19c-0.21,0.12-0.37,0.29-0.49,0.5
				c-0.12,0.21-0.18,0.46-0.18,0.74c0,0.27,0.06,0.52,0.18,0.74s0.28,0.39,0.49,0.51c0.21,0.12,0.45,0.19,0.72,0.19
				c0.21,0,0.41-0.04,0.6-0.12s0.34-0.19,0.47-0.33l0.38,0.38c-0.18,0.2-0.39,0.35-0.64,0.46C93.78,50.03,93.51,50.08,93.23,50.08z"
				/>
			<path class="st0" d="M95.74,45.39c-0.11,0-0.2-0.04-0.27-0.12S95.36,45.1,95.36,45c0-0.11,0.04-0.21,0.11-0.28
				s0.17-0.11,0.27-0.11c0.12,0,0.21,0.04,0.29,0.11c0.07,0.08,0.11,0.17,0.11,0.28c0,0.11-0.04,0.2-0.11,0.28
				C95.96,45.35,95.86,45.39,95.74,45.39z M95.46,50v-3.79h0.57V50H95.46z"/>
			<path class="st0" d="M98.89,50.08c-0.37,0-0.7-0.09-1-0.27c-0.3-0.18-0.53-0.42-0.71-0.72s-0.26-0.64-0.26-1.01
				c0-0.37,0.09-0.7,0.26-0.99c0.17-0.29,0.41-0.53,0.71-0.71c0.3-0.17,0.63-0.26,1-0.26c0.37,0,0.7,0.09,1,0.26
				c0.29,0.17,0.53,0.41,0.7,0.71c0.17,0.3,0.26,0.63,0.26,1c0,0.38-0.09,0.71-0.26,1.01c-0.17,0.3-0.41,0.54-0.7,0.71
				C99.6,49.99,99.26,50.08,98.89,50.08z M98.89,49.53c0.27,0,0.51-0.06,0.71-0.19c0.21-0.12,0.37-0.3,0.49-0.52
				c0.12-0.22,0.18-0.47,0.18-0.74c0-0.27-0.06-0.52-0.18-0.73c-0.12-0.21-0.29-0.38-0.49-0.5c-0.21-0.12-0.44-0.19-0.71-0.19
				c-0.26,0-0.5,0.06-0.71,0.19c-0.21,0.12-0.37,0.29-0.49,0.5c-0.12,0.21-0.18,0.46-0.18,0.73c0,0.28,0.06,0.53,0.18,0.75
				s0.28,0.39,0.49,0.51C98.39,49.47,98.63,49.53,98.89,49.53z M98.39,45.63l-0.26-0.26l1.07-1.27l0.45,0.45L98.39,45.63z"/>
			<path class="st0" d="M101.75,50v-3.79h0.56V50H101.75z M104.51,50v-2.22c0-0.33-0.1-0.6-0.29-0.81c-0.2-0.21-0.46-0.31-0.78-0.31
				c-0.22,0-0.41,0.05-0.58,0.14c-0.17,0.1-0.3,0.23-0.39,0.39c-0.1,0.17-0.15,0.36-0.15,0.57l-0.26-0.15c0-0.28,0.07-0.54,0.2-0.76
				c0.13-0.23,0.32-0.4,0.54-0.53s0.49-0.19,0.79-0.19c0.29,0,0.55,0.07,0.77,0.21s0.4,0.33,0.53,0.56
				c0.13,0.24,0.19,0.49,0.19,0.77V50H104.51z"/>
			<path class="st0" d="M109.62,50.08c-0.38,0-0.72-0.08-1.02-0.26s-0.54-0.41-0.71-0.71s-0.26-0.64-0.26-1.02
				c0-0.37,0.09-0.71,0.26-1s0.41-0.53,0.7-0.71c0.29-0.17,0.62-0.26,0.99-0.26c0.34,0,0.65,0.08,0.92,0.23
				c0.27,0.16,0.47,0.37,0.63,0.65s0.23,0.59,0.23,0.95c0,0.04,0,0.09-0.01,0.15c-0.01,0.06-0.02,0.12-0.03,0.2h-3.28v-0.48h2.97
				l-0.2,0.18c0.01-0.28-0.04-0.52-0.14-0.72c-0.1-0.2-0.24-0.36-0.43-0.47c-0.19-0.11-0.41-0.17-0.67-0.17
				c-0.27,0-0.51,0.06-0.72,0.18s-0.36,0.28-0.48,0.5c-0.12,0.21-0.17,0.46-0.17,0.75s0.06,0.54,0.18,0.76
				c0.12,0.22,0.29,0.39,0.51,0.52c0.22,0.12,0.47,0.19,0.75,0.19c0.23,0,0.44-0.04,0.64-0.12c0.19-0.08,0.36-0.21,0.49-0.37
				l0.36,0.37c-0.18,0.21-0.4,0.37-0.66,0.49C110.2,50.02,109.92,50.08,109.62,50.08z"/>
			<path class="st0" d="M114.07,50v-5.54h0.59V50H114.07z"/>
			<path class="st0" d="M115.94,50v-3.79h0.56V50H115.94z M118.7,50v-2.22c0-0.33-0.1-0.6-0.29-0.81c-0.2-0.21-0.46-0.31-0.78-0.31
				c-0.22,0-0.41,0.05-0.58,0.14c-0.17,0.1-0.3,0.23-0.39,0.39c-0.1,0.17-0.15,0.36-0.15,0.57l-0.26-0.15c0-0.28,0.07-0.54,0.2-0.76
				c0.13-0.23,0.32-0.4,0.54-0.53s0.49-0.19,0.79-0.19c0.29,0,0.55,0.07,0.77,0.21s0.4,0.33,0.53,0.56
				c0.13,0.24,0.19,0.49,0.19,0.77V50H118.7z"/>
			<path class="st0" d="M120.32,50v-3.79h0.56V50H120.32z M123.08,50v-2.22c0-0.33-0.1-0.6-0.29-0.81c-0.2-0.21-0.46-0.31-0.78-0.31
				c-0.22,0-0.41,0.05-0.58,0.14c-0.17,0.1-0.3,0.23-0.39,0.39c-0.1,0.17-0.15,0.36-0.15,0.57l-0.26-0.15c0-0.28,0.07-0.54,0.2-0.76
				c0.13-0.23,0.32-0.4,0.54-0.53s0.49-0.19,0.79-0.19c0.29,0,0.55,0.07,0.77,0.21s0.4,0.33,0.53,0.56
				c0.13,0.24,0.19,0.49,0.19,0.77V50H123.08z"/>
			<path class="st0" d="M126.42,50.08c-0.37,0-0.7-0.09-1-0.27c-0.3-0.18-0.53-0.42-0.71-0.72s-0.26-0.64-0.26-1.01
				c0-0.37,0.09-0.7,0.26-0.99c0.17-0.29,0.41-0.53,0.71-0.71c0.3-0.17,0.63-0.26,1-0.26c0.37,0,0.7,0.09,1,0.26
				c0.29,0.17,0.53,0.41,0.7,0.71c0.17,0.3,0.26,0.63,0.26,1c0,0.38-0.09,0.71-0.26,1.01c-0.17,0.3-0.41,0.54-0.7,0.71
				C127.12,49.99,126.79,50.08,126.42,50.08z M126.42,49.53c0.27,0,0.51-0.06,0.71-0.19c0.21-0.12,0.37-0.3,0.49-0.52
				c0.12-0.22,0.18-0.47,0.18-0.74c0-0.27-0.06-0.52-0.18-0.73c-0.12-0.21-0.29-0.38-0.49-0.5c-0.21-0.12-0.44-0.19-0.71-0.19
				c-0.26,0-0.5,0.06-0.71,0.19c-0.21,0.12-0.37,0.29-0.49,0.5c-0.12,0.21-0.18,0.46-0.18,0.73c0,0.28,0.06,0.53,0.18,0.75
				s0.28,0.39,0.49,0.51C125.92,49.47,126.16,49.53,126.42,49.53z"/>
			<path class="st0" d="M130.44,50l-1.75-3.79h0.63l1.47,3.31h-0.35l1.48-3.31h0.61L130.77,50H130.44z"/>
			<path class="st0" d="M134.73,50.08c-0.36,0-0.68-0.09-0.97-0.26c-0.29-0.17-0.51-0.41-0.67-0.7c-0.16-0.3-0.25-0.63-0.25-1
				c0-0.38,0.08-0.71,0.25-1.01c0.16-0.3,0.39-0.53,0.67-0.71c0.28-0.17,0.6-0.26,0.96-0.26c0.29,0,0.55,0.06,0.78,0.17
				c0.23,0.12,0.41,0.28,0.56,0.48c0.14,0.21,0.23,0.45,0.26,0.72v1.18c-0.03,0.27-0.12,0.52-0.26,0.72
				c-0.14,0.21-0.33,0.37-0.56,0.49C135.27,50.02,135.01,50.08,134.73,50.08z M134.81,49.54c0.39,0,0.71-0.13,0.95-0.39
				c0.24-0.26,0.36-0.61,0.36-1.04c0-0.28-0.06-0.54-0.17-0.75c-0.11-0.22-0.26-0.39-0.46-0.51c-0.2-0.12-0.43-0.18-0.69-0.18
				c-0.27,0-0.51,0.06-0.71,0.19c-0.21,0.12-0.37,0.29-0.49,0.51c-0.12,0.22-0.18,0.47-0.18,0.75c0,0.28,0.06,0.53,0.18,0.74
				s0.29,0.38,0.5,0.51C134.31,49.48,134.55,49.54,134.81,49.54z M136.09,50v-1.01l0.11-0.93l-0.11-0.91v-0.93h0.56V50H136.09z"/>
			<path class="st0" d="M139.52,50.08c-0.37,0-0.71-0.09-1-0.26c-0.3-0.17-0.53-0.41-0.71-0.71s-0.26-0.64-0.26-1.01
				c0-0.37,0.09-0.71,0.26-1s0.41-0.53,0.71-0.71s0.63-0.26,1-0.26c0.28,0,0.55,0.05,0.8,0.16s0.46,0.26,0.63,0.45l-0.37,0.38
				c-0.13-0.14-0.29-0.26-0.47-0.33c-0.18-0.08-0.38-0.12-0.59-0.12c-0.27,0-0.51,0.06-0.72,0.19c-0.21,0.12-0.37,0.29-0.49,0.5
				c-0.12,0.21-0.18,0.46-0.18,0.74c0,0.27,0.06,0.52,0.18,0.74s0.28,0.39,0.49,0.51c0.21,0.12,0.45,0.19,0.72,0.19
				c0.21,0,0.41-0.04,0.6-0.12s0.34-0.19,0.47-0.33l0.38,0.38c-0.18,0.2-0.39,0.35-0.64,0.46C140.07,50.03,139.8,50.08,139.52,50.08
				z"/>
			<path class="st0" d="M142.03,45.39c-0.11,0-0.2-0.04-0.27-0.12s-0.11-0.17-0.11-0.28c0-0.11,0.04-0.21,0.11-0.28
				s0.17-0.11,0.27-0.11c0.12,0,0.21,0.04,0.29,0.11c0.07,0.08,0.11,0.17,0.11,0.28c0,0.11-0.04,0.2-0.11,0.28
				C142.25,45.35,142.15,45.39,142.03,45.39z M141.75,50v-3.79h0.57V50H141.75z"/>
			<path class="st0" d="M145.18,50.08c-0.37,0-0.7-0.09-1-0.27c-0.3-0.18-0.53-0.42-0.71-0.72s-0.26-0.64-0.26-1.01
				c0-0.37,0.09-0.7,0.26-0.99c0.17-0.29,0.41-0.53,0.71-0.71c0.3-0.17,0.63-0.26,1-0.26c0.37,0,0.7,0.09,1,0.26
				c0.29,0.17,0.53,0.41,0.7,0.71c0.17,0.3,0.26,0.63,0.26,1c0,0.38-0.09,0.71-0.26,1.01c-0.17,0.3-0.41,0.54-0.7,0.71
				C145.89,49.99,145.55,50.08,145.18,50.08z M145.18,49.53c0.27,0,0.51-0.06,0.71-0.19c0.21-0.12,0.37-0.3,0.49-0.52
				c0.12-0.22,0.18-0.47,0.18-0.74c0-0.27-0.06-0.52-0.18-0.73c-0.12-0.21-0.29-0.38-0.49-0.5c-0.21-0.12-0.44-0.19-0.71-0.19
				c-0.26,0-0.5,0.06-0.71,0.19c-0.21,0.12-0.37,0.29-0.49,0.5c-0.12,0.21-0.18,0.46-0.18,0.73c0,0.28,0.06,0.53,0.18,0.75
				s0.28,0.39,0.49,0.51C144.68,49.47,144.92,49.53,145.18,49.53z M144.68,45.63l-0.26-0.26l1.07-1.27l0.45,0.45L144.68,45.63z"/>
			<path class="st0" d="M148.04,50v-3.79h0.56V50H148.04z M150.8,50v-2.22c0-0.33-0.1-0.6-0.29-0.81c-0.2-0.21-0.46-0.31-0.78-0.31
				c-0.22,0-0.41,0.05-0.58,0.14c-0.17,0.1-0.3,0.23-0.39,0.39c-0.1,0.17-0.15,0.36-0.15,0.57l-0.26-0.15c0-0.28,0.07-0.54,0.2-0.76
				c0.13-0.23,0.32-0.4,0.54-0.53s0.49-0.19,0.79-0.19c0.29,0,0.55,0.07,0.77,0.21s0.4,0.33,0.53,0.56
				c0.13,0.24,0.19,0.49,0.19,0.77V50H150.8z"/>
		</g>
		<g>
			<g>
				<polygon class="st2" points="151.36,39.61 145.84,32.39 138.32,32.39 143.55,39.61 				"/>
				<path class="st2" d="M137.48,27.39c1.69,0.02,4.37-0.22,4.37-0.22c1.01-0.18,1.94-0.46,2.79-0.87c1.51-0.73,2.69-1.74,3.53-3.05
					s1.26-2.82,1.26-4.56c0-1.71-0.42-3.22-1.26-4.54c-0.84-1.32-2-2.35-3.49-3.09c-1.48-0.74-3.21-1.11-5.17-1.11h-5.5h-1.55h-5.04
					v5.12h6.59h0.4h4.34c1.32,0,2.32,0.35,3.02,1.05c0.7,0.7,1.05,1.58,1.05,2.65c0,1.15-0.36,2.06-1.07,2.73s-1.73,1.01-3.05,1.01
					h-4.3h-0.4h-6.59v17.09h6.59V27.39h0.03v0C134.05,27.39,136.62,27.38,137.48,27.39z"/>
			</g>
			<g>
				<path class="st2" d="M104.02,33.44c-1.09-0.45-2.02-1.08-2.79-1.91c-0.77-0.83-1.37-1.81-1.79-2.96
					c-0.42-1.15-0.63-2.42-0.63-3.82c0-1.88,0.36-3.51,1.09-4.89c0.73-1.39,1.76-2.46,3.09-3.23c0.66-0.38,1.37-0.67,2.14-0.86V9.64
					c-1.3,0.18-2.53,0.49-3.7,0.97c-1.89,0.77-3.54,1.85-4.94,3.23c-1.4,1.39-2.49,3-3.28,4.85c-0.78,1.85-1.18,3.86-1.18,6.05
					c0,2.16,0.39,4.17,1.18,6.03c0.78,1.86,1.89,3.49,3.32,4.89c1.43,1.4,3.09,2.49,4.98,3.28c1.14,0.47,2.35,0.78,3.61,0.97V33.8
					C104.75,33.7,104.38,33.59,104.02,33.44z"/>
				<path class="st2" d="M122.04,18.72c-0.78-1.86-1.88-3.49-3.3-4.87c-1.41-1.39-3.07-2.46-4.96-3.23
					c-1.15-0.47-2.38-0.78-3.65-0.96v6.12c0.37,0.1,0.74,0.2,1.09,0.35c1.08,0.43,2.01,1.06,2.79,1.89
					c0.78,0.83,1.39,1.81,1.81,2.94c0.42,1.13,0.63,2.4,0.63,3.8c0,1.85-0.36,3.48-1.09,4.89c-0.73,1.41-1.76,2.51-3.09,3.3
					c-0.66,0.39-1.37,0.68-2.14,0.88v6.12c1.29-0.18,2.52-0.5,3.7-0.99c1.89-0.78,3.54-1.87,4.94-3.25c1.4-1.39,2.49-3.01,3.28-4.87
					c0.78-1.86,1.18-3.87,1.18-6.03C123.22,22.6,122.82,20.58,122.04,18.72z"/>
			</g>
			<g>
				<path class="st2" d="M71.7,28.57c-0.43-1.15-0.65-2.42-0.65-3.82c0-1.37,0.22-2.63,0.65-3.78c0.43-1.15,1.04-2.13,1.81-2.94
					c0.77-0.81,1.69-1.43,2.77-1.87c1.08-0.43,2.26-0.65,3.55-0.65c0.06,0,0.11,0.01,0.17,0.01V9.5c-0.06,0-0.11-0.01-0.17-0.01
					c-2.21,0-4.26,0.39-6.15,1.16c-1.89,0.77-3.54,1.84-4.94,3.21c-1.4,1.37-2.49,2.99-3.28,4.85c-0.78,1.86-1.18,3.87-1.18,6.03
					c0,2.16,0.39,4.17,1.18,6.03c0.44,1.05,0.99,2.02,1.63,2.92l4.76-4.76C71.81,28.81,71.75,28.69,71.7,28.57z"/>
				<path class="st2" d="M86.68,31.38c-0.81,0.84-1.78,1.5-2.9,1.97c-1.12,0.48-2.44,0.71-3.95,0.71c-1.29,0-2.47-0.22-3.55-0.67
					c-0.43-0.18-0.82-0.39-1.2-0.62l-4.45,4.45c0.95,0.67,1.97,1.25,3.08,1.7c1.89,0.77,3.94,1.16,6.15,1.16
					c2.41,0,4.53-0.38,6.36-1.13s3.47-1.79,4.89-3.11L86.68,31.38z"/>
			</g>
			<g>
				<polygon class="st2" points="47.11,18.39 47.11,15.63 61.6,15.63 61.6,9.96 47.11,9.96 45.55,9.96 40.51,9.96 40.51,39.61 
					45.55,39.61 47.11,39.61 47.11,18.39 				"/>
				<rect x="52.11" y="21.72" class="st2" width="8.23" height="5.5"/>
				<rect x="52.11" y="33.9" class="st2" width="9.7" height="5.71"/>
			</g>
			<g>
				<path class="st2" d="M22.05,33.4c-1.08-0.45-2-1.08-2.77-1.89c-0.77-0.81-1.37-1.79-1.81-2.94c-0.43-1.15-0.65-2.42-0.65-3.82
					c0-1.37,0.22-2.63,0.65-3.78c0.01-0.04,0.03-0.07,0.05-0.11l-4.82-4.82c-0.57,0.83-1.06,1.72-1.46,2.68
					c-0.78,1.86-1.18,3.87-1.18,6.03c0,2.16,0.39,4.17,1.18,6.03c0.78,1.86,1.88,3.49,3.3,4.89c1.41,1.4,3.07,2.49,4.96,3.25
					c1.7,0.69,3.54,1.06,5.51,1.13v-6C23.95,33.98,22.96,33.77,22.05,33.4z"/>
				<path class="st2" d="M22.05,16.16c1.08-0.43,2.26-0.65,3.55-0.65c1.46,0,2.74,0.24,3.84,0.71c1.11,0.48,2.05,1.13,2.84,1.97
					l4.41-4.45c-1.37-1.32-2.98-2.35-4.81-3.11C30.05,9.88,27.96,9.5,25.6,9.5c-2.21,0-4.26,0.39-6.15,1.16
					c-1.18,0.48-2.26,1.1-3.25,1.81l4.43,4.43C21.07,16.61,21.55,16.36,22.05,16.16z"/>
				<circle class="st0" cx="25.8" cy="24.78" r="6.03"/>
			</g>
		</g>
	</g>
</g>
<g id="Info" class="st4">
</g>
<g id="Guias">
</g>
</svg>
