<?xml version="1.0" encoding="utf-8"?>
<!-- Generator: Adobe Illustrator 21.0.0, SVG Export Plug-In . SVG Version: 6.00 Build 0)  -->
<svg version="1.1" id="Capa_1" xmlns="http://www.w3.org/2000/svg" xmlns:xlink="http://www.w3.org/1999/xlink" x="0px" y="0px"
	 viewBox="0 0 500 500" style="enable-background:new 0 0 500 500;" xml:space="preserve">
<style type="text/css">
	.st0{fill:#FFFFFF;}
</style>
<g>
	<path class="st0" d="M411.2,134.5c-2.3-4-6.6-6.6-11.3-6.6h-26.4c3.1-5.6,4.7-11.9,4.7-18.4c0-21-17-38-38-38s-38,17-38,38
		c0,6.7,1.7,12.9,4.8,18.4h-32.5c-5.6-14.2-19.5-24.1-35.4-24.1c-15.9,0-29.8,9.9-35.4,24.1H100.1c-4.7,0-9,2.5-11.3,6.6
		c-2.3,4-2.3,8.9,0,12.9l109.2,189.2V489l103.8-40.8V336.6l109.2-189.2C413.4,143.5,413.4,138.5,411.2,134.5z M340.2,91.4
		c9.9,0,18,8.1,18,18s-8.1,18-18,18s-18-8.1-18-18S330.3,91.4,340.2,91.4z M283.8,327.9h-67.7l-103.9-180h275.5L283.8,327.9z
		 M281.9,347.9v86.7l-63.8,25.1V347.9H281.9z M227.6,127.9c3.1-2.6,7.2-4.1,11.5-4.1c4.3,0,8.3,1.5,11.5,4.1H227.6z"/>
	<path class="st0" d="M156,119.4c10.2,0,19.8-4,27-11.2c7.1-7.2,11-16.7,11-26.8c0-21-17-38-38-38s-38,17-38,38S135,119.4,156,119.4
		z M156,63.3c9.9,0,18,8.1,18,18s-8.1,18-18,18s-18-8.1-18-18S146.1,63.3,156,63.3z"/>
	<path class="st0" d="M250,89.4c21,0,38-17,38-38s-17-38-38-38s-38,17-38,38S229,89.4,250,89.4z M250,33.3c9.9,0,18,8.1,18,18
		s-8.1,18-18,18c-9.9,0-18-8.1-18-18S240.1,33.3,250,33.3z"/>
</g>
</svg>
