<?xml version="1.0" encoding="utf-8"?>
<!-- Generator: Adobe Illustrator 21.0.0, SVG Export Plug-In . SVG Version: 6.00 Build 0)  -->
<svg version="1.1" id="Capa_1" xmlns="http://www.w3.org/2000/svg" xmlns:xlink="http://www.w3.org/1999/xlink" x="0px" y="0px"
	 viewBox="0 0 500 500" style="enable-background:new 0 0 500 500;" xml:space="preserve">
<style type="text/css">
	.st0{fill:#FFFFFF;}
</style>
<path class="st0" d="M468.4,240h-36.2c-5-92.7-79.5-167.2-172.2-172.2V31.6c0-1.7-1.3-3-3-3h-14c-1.7,0-3,1.3-3,3v36.2
	c-92.7,5-167.2,79.5-172.2,172.2H31.6c-1.7,0-3,1.3-3,3v14c0,1.7,1.3,3,3,3h36.2c5,92.7,79.5,167.2,172.2,172.2v36.2
	c0,1.7,1.3,3,3,3h14c1.7,0,3-1.3,3-3v-36.2c92.7-5,167.2-79.5,172.2-172.2h36.2c1.7,0,3-1.3,3-3v-14
	C471.4,241.3,470.1,240,468.4,240z M412.2,240h-33.5c-4.9-63.2-55.5-113.8-118.7-118.7V87.8C341.6,92.8,407.2,158.4,412.2,240z
	 M318.4,260h40.2c-4.8,52.2-46.4,93.9-98.6,98.6v-40.2c0-1.7-1.3-3-3-3h-14c-1.7,0-3,1.3-3,3v40.2c-52.2-4.8-93.9-46.4-98.6-98.6
	h40.2c1.7,0,3-1.3,3-3v-14c0-1.7-1.3-3-3-3h-40.2c4.8-52.2,46.4-93.9,98.6-98.6v40.2c0,1.7,1.3,3,3,3h14c1.7,0,3-1.3,3-3v-40.2
	c52.2,4.8,93.9,46.4,98.6,98.6h-40.2c-1.7,0-3,1.3-3,3v14C315.4,258.7,316.7,260,318.4,260z M240,87.8v33.5
	c-63.2,4.9-113.8,55.5-118.7,118.7H87.8C92.8,158.4,158.4,92.8,240,87.8z M87.8,260h33.5c4.9,63.2,55.5,113.8,118.7,118.7v33.5
	C158.4,407.2,92.8,341.6,87.8,260z M260,412.2v-33.5c63.2-4.9,113.8-55.5,118.7-118.7h33.5C407.2,341.6,341.6,407.2,260,412.2z"/>
</svg>
