<?xml version="1.0" encoding="utf-8"?>
<!-- Generator: Adobe Illustrator 21.0.0, SVG Export Plug-In . SVG Version: 6.00 Build 0)  -->
<svg version="1.1" xmlns="http://www.w3.org/2000/svg" xmlns:xlink="http://www.w3.org/1999/xlink" x="0px" y="0px"
	 viewBox="0 0 1080 1080" style="enable-background:new 0 0 1080 1080;" xml:space="preserve">
<style type="text/css">
	.st0{display:none;}
	.st1{fill:#82201C;}
	.st2{fill:#878787;}
	.st3{fill:#FFFFFF;}
	.st4{fill:#3E4146;}
	.st5{fill:#010204;}
	.st6{fill:#F9FA0B;}
	.st7{fill:#DDDDDD;}
</style>
<g id="Capa_3">
</g>
<g id="Capa_1">
	<path class="st3" d="M234.9,384.6c-50.8,0-98.7,14.6-140.8,40.4c10.4,110.5,64.1,205.7,140.9,262
		c76.8-56.2,130.5-151.4,140.9-261.9C333.7,399.2,285.7,384.6,234.9,384.6z M357.3,442.2c-0.8,5.6-1.7,11.2-2.8,16.8
		c-1,5.6-2.2,11.1-3.5,16.6c-1.3,5.5-2.7,10.9-4.2,16.3c-0.8,2.7-1.5,5.4-2.3,8.1c-3.6,12-7.9,23.8-12.7,35.2
		c-4.8,11.5-10.1,22.6-16,33.4c-2.9,5.3-5.9,10.5-9,15.6c-4.7,7.7-9.7,15.1-14.9,22.3c-3.5,4.8-7.1,9.5-10.8,14
		c-1.9,2.3-3.7,4.5-5.6,6.7c-1.6,1.8-3.1,3.6-4.7,5.4c-6.4,7.1-13,13.8-19.9,20.2c-5.2,4.8-10.5,9.3-15.9,13.7
		c-5.4-4.3-10.7-8.9-15.9-13.7c-6.9-6.4-13.5-13.1-19.9-20.2c-1.6-1.8-3.2-3.6-4.7-5.4c-2.6-3.1-5.2-6.2-7.8-9.4
		c-2.5-3.2-5-6.4-7.5-9.7c-2.4-3.3-4.8-6.6-7.1-10.1s-4.6-6.9-6.8-10.4l0,0v0c2.2,0.7,5.6,1.8,9.5,2.9c1.1,0.3,2.2,0.6,3.3,0.9
		c0.5,0.1,1.1,0.3,1.6,0.4c1.3,0.3,2.6,0.7,3.9,1c1.2,0.3,2.5,0.6,3.7,0.9c0.5,0.1,1,0.2,1.6,0.3c1.2,0.3,2.5,0.5,3.7,0.7
		c0.5,0.1,1,0.2,1.5,0.2c2.9,0.5,5.7,0.7,8.1,0.7c14,0,13.7-3.5,13.7-3.5v-37.1c0,0,0.2,0.1,0.7,0.4c0.3,0.2,0.7,0.4,1.1,0.7
		c0.4,0.3,1,0.6,1.6,0.9c0.6,0.3,1.2,0.7,1.9,1.2c1.4,0.8,3,1.8,4.7,2.8c1.3,0.7,2.6,1.5,4,2.3c0.9,0.5,1.8,1,2.7,1.5
		c0.9,0.5,1.8,1,2.7,1.5c1.3,0.7,2.7,1.4,3.9,2.1c0.8,0.4,1.6,0.8,2.4,1.2c0.8,0.4,1.5,0.7,2.1,1c0.7,0.3,1.2,0.5,1.8,0.7
		c0.8,0.3,1.4,0.5,1.9,0.5c0.8,0.1,1.6,0.1,2.5,0.2c0.1,0,0.2,0,0.2,0c0.8,0,1.7,0.1,2.5,0.1c0.1,0,0.2,0,0.2,0c0.6,0,1.2,0,1.8,0
		c0.1,0,0.2,0,0.4,0c0.6,0,1.3-0.1,1.9-0.1c0.1,0,0.1,0,0.2,0c0.6,0,1.3-0.1,1.9-0.2c0.1,0,0.2,0,0.3,0c0.7-0.1,1.3-0.2,2-0.3
		c0.1,0,0.3,0,0.4-0.1c0.7-0.1,1.4-0.2,2-0.4c0.1,0,0.2,0,0.3-0.1c0.7-0.1,1.4-0.3,2.1-0.5c0,0,0.1,0,0.1,0c0.7-0.2,1.4-0.4,2.2-0.6
		c0.1,0,0.3-0.1,0.4-0.1c0.7-0.2,1.4-0.4,2.1-0.7c0.1,0,0.3-0.1,0.4-0.1c0.7-0.2,1.5-0.5,2.2-0.8c0.1,0,0.1,0,0.2-0.1
		c0.7-0.3,1.4-0.6,2.1-0.9c0.1-0.1,0.2-0.1,0.4-0.2c0.7-0.3,1.4-0.7,2.1-1c0.1-0.1,0.3-0.1,0.4-0.2c0.7-0.4,1.4-0.7,2.2-1.1
		c0.1-0.1,0.2-0.1,0.3-0.2c0.7-0.4,1.4-0.8,2.1-1.2c0.1,0,0.1-0.1,0.2-0.1c0.7-0.5,1.4-0.9,2.1-1.4c0.1-0.1,0.3-0.2,0.4-0.3
		c0.7-0.5,1.4-1,2.1-1.6c0.1-0.1,0.2-0.2,0.4-0.3c0.7-0.6,1.4-1.2,2.1-1.8c2.3-2,4.2-4.1,5.8-6.2c1.3-1.7,2.3-3.4,3.2-5.1
		c0.2-0.4,0.4-0.8,0.6-1.3c0.4-0.8,0.8-1.7,1.1-2.5c0.3-0.8,0.6-1.6,0.9-2.4c0.1-0.4,0.3-0.8,0.4-1.1c0.6-1.9,1-3.6,1.2-5.1
		c0.1-0.6,0.2-1.2,0.3-1.7c0.3-2.6,0.2-4.3,0.2-4.3h7.2c0,0,0.6-0.5,1.5-1.4c0.4-0.4,0.9-0.8,1.4-1.3c0.8-0.8,1.8-1.8,2.9-2.9
		c0.4-0.4,0.9-0.9,1.3-1.3c1.6-1.6,3.2-3.3,4.7-5c0.4-0.5,0.9-1,1.3-1.4c1.3-1.4,2.4-2.8,3.3-3.9c4.8-6.3-2.2-8.1-2.2-8.1L206.5,449
		l-44.5,2.6l75.9,46.7l0,0l0,0c0,0-0.2-0.1-0.5-0.3c-0.4-0.2-1.1-0.6-2.1-1.1c-1.2-0.6-2.7-1.4-4.6-2.4c-1.5-0.8-3.2-1.6-5-2.6
		c-0.5-0.2-0.9-0.5-1.4-0.7c-1.9-1-4-2.1-6.1-3.2c-0.5-0.3-1.1-0.6-1.6-0.9c-1.1-0.6-2.2-1.2-3.4-1.8c-1.5-0.8-3.1-1.6-4.7-2.4
		c-0.8-0.4-1.6-0.8-2.4-1.3c-0.6-0.3-1.2-0.6-1.8-1c-0.8-0.4-1.7-0.9-2.5-1.3c-1-0.5-2.1-1.1-3.1-1.6c-5.6-2.9-11.4-5.8-16.7-8.6
		c-1.8-0.9-3.5-1.8-5.2-2.7c-0.6-0.3-1.1-0.6-1.7-0.9c-2.2-1.1-4.3-2.2-6.3-3.2c-2.9-1.5-5.6-2.8-7.8-3.9c-0.7-0.4-1.4-0.7-2-1
		c-0.6-0.3-1.2-0.6-1.7-0.8c-0.8-0.4-1.4-0.7-1.9-0.9c-0.3-0.1-0.6-0.3-0.8-0.3c-0.2-0.1-0.4-0.1-0.6-0.2c-0.1,0-0.1,0-0.2,0
		c-0.1,0-0.3-0.1-0.4-0.1c-0.1,0-0.1,0-0.2,0c-0.1,0-0.2,0-0.3,0c-0.1,0-0.1,0-0.2,0c-0.1,0-0.2,0-0.3,0c0,0-0.1,0-0.1,0
		c-0.2,0-0.5,0-0.7,0.1c0,0,0,0,0,0c-0.2,0-0.4,0.1-0.6,0.2c0,0-0.1,0-0.1,0c-0.2,0.1-0.4,0.2-0.5,0.3c0,0-0.1,0-0.1,0.1
		c-0.2,0.1-0.3,0.2-0.5,0.3c0,0,0,0-0.1,0.1c-0.1,0.1-0.3,0.2-0.4,0.4c0,0,0,0,0,0c-0.1,0.1-0.2,0.3-0.3,0.4c0,0,0,0.1-0.1,0.1
		c-0.1,0.1-0.2,0.3-0.3,0.5c0,0,0,0.1-0.1,0.1c-0.1,0.2-0.2,0.3-0.2,0.5c0,0,0,0,0,0.1c-0.1,0.2-0.1,0.3-0.2,0.5c0,0,0,0,0,0.1
		c-0.1,0.2-0.1,0.3-0.1,0.5c0,0,0,0.1,0,0.1c0,0.1-0.1,0.3-0.1,0.4c0,0,0,0.1,0,0.1c0,0.1-0.1,0.3-0.1,0.4c0,0,0,0,0,0
		c0,0.1,0,0.2-0.1,0.3c0,0,0,0,0,0c0,0.1,0,0.2,0,0.3c0,0,0,0,0,0c0,0.1,0,0.1,0,0.2c0,0,0,0,0,0c0,0,0,0.1,0,0.1v20.1l47.7,24.9
		l47.7,24.9l21.2-21.3h45.8h0h0l-43.2,5.9l-11.2,11.6L244,538.9l-85.9-45.8v21.8l43.2,28.8v0v0l-8.6-4l-18.7-8.6v8.8l14.1,10.5v22.9
		v0l-4.6-13.1l-39-10.4c-1.9-4-3.7-8.1-5.5-12.2c-1.7-4.1-3.4-8.2-5-12.4c-3.2-8.3-6.1-16.8-8.7-25.5c-2.4-8-4.6-16.2-6.5-24.4
		c-1.3-5.5-2.4-11-3.5-16.6c-1.6-8.3-2.8-16.7-3.9-25.2c2.2-1.2,4.4-2.4,6.6-3.6c4.4-2.3,8.9-4.5,13.3-6.5
		c11.2-5.1,22.7-9.4,34.4-12.8c22.5-6.6,45.7-9.9,69.1-9.9c17.5,0,35,1.9,52.2,5.6c5.7,1.2,11.4,2.7,17,4.3c2.3,0.7,4.7,1.4,7,2.2
		c7,2.3,13.9,4.8,20.7,7.7c2.3,1,4.5,2,6.8,3c4.5,2.1,9,4.2,13.4,6.6c2.2,1.2,4.4,2.4,6.6,3.6v0l0,0
		C358,436.6,357.7,439.4,357.3,442.2z M265.9,539.8c0-7.1,5.8-12.9,12.9-12.9s12.9,5.8,12.9,12.9s-5.8,12.9-12.9,12.9
		S265.9,546.9,265.9,539.8z"/>
	<path class="st3" d="M285.1,539.3l0.1,0.5c0,0.2,0,0.3,0,0.5l0,0.3c0,0.1,0,0.2,0,0.3l0,0.5c0,0.7-0.2,1.4-0.3,2.1
		c-0.3,1.5-0.9,2.9-1.7,4.5c0.9-0.3,1.6-0.8,2.3-1.4c0.7-0.6,1.3-1.3,1.8-2.2c0.5-0.8,0.8-1.7,1-2.7c0.1-0.2,0.1-0.5,0.1-0.7
		c0-0.2,0.1-0.5,0.1-0.7c0-0.2,0-0.5,0-0.7l-0.1-0.7c-0.2-2-1.1-3.8-2.3-5.2c-0.6-0.7-1.4-1.3-2.2-1.7c-0.8-0.4-1.6-0.8-2.5-0.9
		c1.1,1.4,1.9,2.8,2.6,4.1C284.5,536.5,285,537.9,285.1,539.3z"/>
	<g>
		<path class="st3" d="M578.3,419.2l-38.6,27.3c0,0-8.5-13.6-52.1-13.6s-47.1,8.4-47.1,8.4V457h85.9v48.4h-85.9v19.4
			c0,0,10.7,7.2,43.2,7.2s44.9-3.3,56-12.2l38.6,26c0,0-8.9,14-29.9,24c-20.9,10-47.5,10.3-83.7,10.3s-73.5-17.9-73.5-55.2
			s0-92.7,0-92.7s6.3-36,51.5-43.8s89-2.2,105.8,6.5C565.3,403.5,578.3,419.2,578.3,419.2z"/>
		<path class="st3" d="M780.7,529.8v-96c0-6.3-5.9-20.7-14.6-29s-32.1-20.3-70.2-20.3c-38.2,0-55.2,4.4-55.2,4.4v-4.4h-48.2V580
			c0,0,89.6,0,111.9,0c22.2,0,49.5-8.7,63-20.5C780.9,547.7,780.7,529.8,780.7,529.8z M731.9,522.8c0,0-14,9.2-43.8,9.2
			c-29.9,0-46.5,0-46.5,0v-93.1c0,0,9.8-5.7,44.1-5.7c34.2,0,46.2,8.5,46.2,8.5V522.8z"/>
		<path class="st3" d="M848.1,441.3c0,0,10.7-8.5,52.6-8.5c0,0,21.2-1.3,33.6,5.5s12.6,8.9,12.6,8.9l39-27.5c0,0-22-35.1-78.7-35.1
			c-56.7,0-85.7,5.5-102.9,31.3c0,0-5.9,9.9-5.9,22.1c0,12.2,0,89.6,0,89.6s0.7,21.8,17.7,35.1c17,13.3,48.2,17.2,83.1,17.2
			c34.9,0,58.7-9.2,68.3-16.1c9.6-7,18.5-17.4,18.5-17.4l-39.7-27.5c0,0-11.6,12-34.9,13.1c-23.3,1.1-56.7-3.5-63.7-7.6v-82.9
			L848.1,441.3z"/>
	</g>
	<g>
		<g>
			<path class="st3" d="M541,627.2c4.3,0,6.7-2.1,6.7-4.3c0-3.1-3.9-3.9-8.1-4.7c-4.6-0.8-14.4-2.6-14.4-12c0-9.3,8-11.8,14.4-11.8
				c6.4,0,10.4,2.1,14.4,5.2l-4.4,6.4c-3.1-2.4-6.8-4-10.3-4c-2.3,0-6.3,0.7-6.3,3.8c0,2.8,3.9,3.4,7.2,4.2
				c5.9,1.3,15.3,2.1,15.3,12.6c0,8.1-5.9,12.1-14.5,12.1c-7.9,0-13-3-16.4-6.1l4.2-6.5C531.5,624.6,536.9,627.2,541,627.2z"/>
			<path class="st3" d="M564.6,601.6c-2.3,0-4.2-1.9-4.2-4.3c0-2.4,1.9-4.3,4.2-4.3c2.2,0,4.1,1.9,4.1,4.3
				C568.7,599.7,566.9,601.6,564.6,601.6z M560.9,604.8h7.5v29.3h-7.5V604.8z"/>
			<path class="st3" d="M574.2,630.2l3.9-5.6c2.1,1.5,5.6,3.2,8.8,3.2c2.3,0,3.9-1.1,3.9-2.6c0-2-3.8-2.2-5.3-2.5
				c-3.7-0.7-10.8-1.9-10.8-9.2c0-8.6,8.6-9.3,11.3-9.3c4.3,0,7.8,1.3,11.4,4.2l-3.9,5.4c-2-1.3-4.7-2.7-7.8-2.7
				c-1.4,0-3.6,0.7-3.6,2.2c0,2,4,2.5,5.2,2.6c4.6,0.9,10.9,1.7,10.9,9.3c0,6.1-4.1,9.6-11.2,9.6
				C581.1,634.8,577.2,632.7,574.2,630.2z"/>
			<path class="st3" d="M613.3,623.6c0,1.6,0,4.4,3.4,4.4c0.8,0,1.4-0.1,1.9-0.1v6.7c-0.9,0.1-2.3,0.2-3.3,0.2
				c-5.8,0-9.3-1.1-9.3-7.3v-16.3h-3.3v-7h3.3v-7.9h7.4v7.9h5.5v7h-5.5V623.6z"/>
			<path class="st3" d="M623.2,619.5c0-12.1,9.7-15.3,14.9-15.3c7,0,14,5.1,14.3,14.6c0,2.2-0.1,3.7-0.1,3.7h-21.6
				c0.9,4.8,6,5.3,7.5,5.3c4.1,0,6.2-2.4,7-3.4l5.8,3.6c-1.1,1.6-4.8,6.8-12.8,6.8C632.8,634.8,623.2,631.6,623.2,619.5z
				 M630.8,616.8h13.7c-0.3-2.7-2.7-5.6-6.5-5.6C633.8,611.2,631.1,613.8,630.8,616.8z"/>
			<path class="st3" d="M701.9,616.7v17.4h-7.5v-17.4c0-4.5-2.4-5.9-5.3-5.9c-2,0-5.2,1.3-5.2,6.9v16.3h-7.5v-17.4
				c0-4.5-2.5-5.9-5.3-5.9c-2.3,0-5.3,1.3-5.3,7.7l0,15.5h-7.4v-29.4h7.4v2.7c1.9-1.8,5-3.2,7.2-3.2c4.2,0,6.9,1.5,8.8,4
				c2-2.5,5.1-4,8.8-4C698.4,604.2,701.9,609.1,701.9,616.7z"/>
			<path class="st3" d="M730.3,631.1c-1.1,1.7-4.4,3.6-8.3,3.6c-8.6,0-13.7-6.9-13.7-15.3c0-8.4,5.1-15.3,13.7-15.3
				c4,0,6.9,1.7,8.3,3.7v-3h7.4v29.4h-7.4V631.1z M723.1,611.1c-4.7,0-7.5,3.5-7.5,8.3c0,4.6,2.9,8.3,7.5,8.3c4.6,0,7.5-3.2,7.5-8.3
				C730.6,614.5,727.8,611.1,723.1,611.1z"/>
			<path class="st3" d="M743.5,630.2l3.9-5.6c2.1,1.5,5.6,3.2,8.8,3.2c2.3,0,3.9-1.1,3.9-2.6c0-2-3.8-2.2-5.3-2.5
				c-3.7-0.7-10.8-1.9-10.8-9.2c0-8.6,8.6-9.3,11.3-9.3c4.3,0,7.8,1.3,11.4,4.2l-3.9,5.4c-2-1.3-4.7-2.7-7.8-2.7
				c-1.4,0-3.6,0.7-3.6,2.2c0,2,4,2.5,5.2,2.6c4.6,0.9,10.9,1.7,10.9,9.3c0,6.1-4.1,9.6-11.2,9.6
				C750.5,634.8,746.5,632.7,743.5,630.2z"/>
			<path class="st3" d="M809.1,631.1c-1.1,1.7-4.4,3.6-8.3,3.6c-8.6,0-13.7-6.9-13.7-15.3c0-8.4,5.1-15.3,13.7-15.3
				c4,0,6.9,1.7,8.3,3.7v-14.1h7.4v40.4h-7.4V631.1z M801.9,611.1c-4.7,0-7.5,3.5-7.5,8.3c0,4.6,2.9,8.3,7.5,8.3
				c4.6,0,7.5-3.2,7.5-8.3C809.4,614.5,806.5,611.1,801.9,611.1z"/>
			<path class="st3" d="M822.5,619.5c0-12.1,9.7-15.3,14.9-15.3c7,0,14,5.1,14.3,14.6c0,2.2-0.1,3.7-0.1,3.7h-21.6
				c0.9,4.8,6,5.3,7.5,5.3c4.1,0,6.2-2.4,7-3.4l5.8,3.6c-1.1,1.6-4.8,6.8-12.8,6.8C832.1,634.8,822.5,631.6,822.5,619.5z
				 M830.1,616.8h13.7c-0.3-2.7-2.7-5.6-6.5-5.6C833.1,611.2,830.4,613.8,830.1,616.8z"/>
		</g>
		<g>
			<path class="st3" d="M407.2,679.6c4.3,0,6.7-2.1,6.7-4.3c0-3.1-3.9-3.9-8.1-4.7c-4.6-0.8-14.4-2.6-14.4-12
				c0-9.3,8-11.8,14.4-11.8c6.4,0,10.4,2.1,14.4,5.2l-4.4,6.4c-3.1-2.4-6.8-4-10.3-4c-2.3,0-6.3,0.7-6.3,3.8c0,2.8,3.9,3.4,7.2,4.2
				c5.9,1.3,15.3,2.1,15.3,12.6c0,8.1-5.9,12.1-14.5,12.1c-7.9,0-13-3-16.4-6.1l4.2-6.5C397.7,676.9,403,679.6,407.2,679.6z"/>
			<path class="st3" d="M425.9,671.8c0-12.1,9.7-15.3,14.9-15.3c7,0,14,5.1,14.3,14.6c0,2.2-0.1,3.7-0.1,3.7h-21.6
				c0.9,4.8,6,5.3,7.5,5.3c4.1,0,6.2-2.4,7-3.4l5.8,3.6c-1.1,1.6-4.8,6.8-12.8,6.8C435.4,687.1,425.9,683.9,425.9,671.8z
				 M433.5,669.1h13.7c-0.3-2.7-2.7-5.6-6.5-5.6C436.4,663.5,433.8,666.2,433.5,669.1z"/>
			<path class="st3" d="M475.3,697.5c-5.1,0-9.6-1.5-13.1-4.4l3.6-5.7c2.1,1.8,5.5,3.4,9.3,3.3c5.9-0.2,6.6-4.1,6.6-6.8v-0.5
				c-1.9,1.7-4.5,2.6-7.7,2.6c-8.9,0-14.4-6.6-14.4-14.7c0-8.1,5.4-14.7,14.4-14.7c3.2,0,5.7,0.9,7.7,2.6V657h7.4v26.8
				C489.1,692.2,484,697.5,475.3,697.5z M482,671.2c0-4.5-3.3-8-7.5-8c-4.6,0-7.5,3.5-7.5,8c0,4.6,2.8,8,7.5,8
				C478.8,679.2,482,675.7,482,671.2z"/>
			<path class="st3" d="M496.4,674.5v-17.4h7.5v17.4c0,4.5,2.5,5.9,5.3,5.9c2.1,0,5.4-1.3,5.2-7.7v-15.5h7.5v29.3h-7.5v-2.5
				c-1.8,2-4.4,3.2-7.3,3.2C499.3,687,496.4,682.1,496.4,674.5z"/>
			<path class="st3" d="M536.4,673.4v13H529V657h7.4v3.9c2.8-4,7.4-4.5,9.3-4.4v7.8C544,664.1,536.4,664.5,536.4,673.4z"/>
			<path class="st3" d="M554.3,653.9c-2.3,0-4.2-1.9-4.2-4.3c0-2.4,1.9-4.3,4.2-4.3c2.2,0,4.1,1.9,4.1,4.3
				C558.4,652,556.5,653.9,554.3,653.9z M550.6,657.1h7.5v29.3h-7.5V657.1z"/>
			<path class="st3" d="M586.1,683.5c-1.1,1.7-4.4,3.6-8.3,3.6c-8.6,0-13.7-6.9-13.7-15.3c0-8.4,5.1-15.3,13.7-15.3
				c4,0,6.9,1.7,8.3,3.7V646h7.4v40.4h-7.4V683.5z M578.9,663.4c-4.7,0-7.5,3.5-7.5,8.3c0,4.6,2.9,8.3,7.5,8.3
				c4.6,0,7.5-3.2,7.5-8.3C586.4,666.8,583.5,663.4,578.9,663.4z"/>
			<path class="st3" d="M621.5,683.5c-1.1,1.7-4.4,3.6-8.3,3.6c-8.6,0-13.7-6.9-13.7-15.3c0-8.4,5.1-15.3,13.7-15.3
				c4,0,6.9,1.7,8.3,3.7v-3h7.4v29.4h-7.4V683.5z M614.3,663.4c-4.7,0-7.5,3.5-7.5,8.3c0,4.6,2.9,8.3,7.5,8.3c4.6,0,7.5-3.2,7.5-8.3
				C621.8,666.8,618.9,663.4,614.3,663.4z"/>
			<path class="st3" d="M656.9,683.5c-1.1,1.7-4.4,3.6-8.3,3.6c-8.6,0-13.7-6.9-13.7-15.3c0-8.4,5.1-15.3,13.7-15.3
				c4,0,6.9,1.7,8.3,3.7V646h7.4v40.4h-7.4V683.5z M649.7,663.4c-4.7,0-7.5,3.5-7.5,8.3c0,4.6,2.9,8.3,7.5,8.3
				c4.6,0,7.5-3.2,7.5-8.3C657.2,666.8,654.4,663.4,649.7,663.4z"/>
			<path class="st3" d="M694.8,663.4h17.4v7.4h-17.4v8.3h19.7v7.3h-27.5v-39.1h27.5v7.3h-19.7V663.4z"/>
			<path class="st3" d="M721.4,646h7.5v40.4h-7.5V646z"/>
			<path class="st3" d="M734.6,671.8c0-12.1,9.7-15.3,14.9-15.3c7,0,14,5.1,14.3,14.6c0,2.2-0.1,3.7-0.1,3.7h-21.6
				c0.9,4.8,6,5.3,7.5,5.3c4.1,0,6.2-2.4,7-3.4l5.8,3.6c-1.1,1.6-4.8,6.8-12.8,6.8C744.2,687.1,734.6,683.9,734.6,671.8z
				 M742.3,669.1h13.7c-0.3-2.7-2.7-5.6-6.5-5.6C745.2,663.5,742.5,666.2,742.3,669.1z"/>
			<path class="st3" d="M768.5,671.8c0-8.4,6.7-15.3,14.9-15.3c5.8,0,10.6,3,13.4,8.5l-6.7,2.8c-1.6-2.9-4-4.4-6.7-4.4
				c-4.3,0-7.5,3.5-7.5,8.3c0,4.8,3.2,8.3,7.5,8.3c2.7,0,5.2-1.2,6.9-4.3l6.3,2.7c-2.6,5.8-7,8.7-13.2,8.7
				C775.2,687.1,768.5,680.3,768.5,671.8z"/>
			<path class="st3" d="M811.3,675.9c0,1.6,0,4.4,3.4,4.4c0.8,0,1.4-0.1,1.9-0.1v6.7c-0.9,0.1-2.3,0.2-3.3,0.2
				c-5.8,0-9.3-1.1-9.3-7.3v-16.3h-3.3v-7h3.3v-7.9h7.4v7.9h5.5v7h-5.5V675.9z"/>
			<path class="st3" d="M829.8,673.4v13h-7.4V657h7.4v3.9c2.8-4,7.4-4.5,9.3-4.4v7.8C837.3,664.1,829.8,664.5,829.8,673.4z"/>
			<path class="st3" d="M841.6,671.8c0-8.4,6.7-15.3,14.8-15.3s14.9,6.9,14.9,15.3c0,8.5-6.8,15.3-14.9,15.3
				S841.6,680.3,841.6,671.8z M848.9,671.8c0,4.9,3.2,8.4,7.5,8.4c4.2,0,7.5-3.6,7.5-8.4c0-4.7-3.3-8.3-7.5-8.3
				C852.3,663.5,848.9,667.1,848.9,671.8z M865.3,647.9l-7.4,5.8H852l6.6-8.8L865.3,647.9z"/>
			<path class="st3" d="M902.8,669v17.4h-7.6V669c0-4.5-2.4-5.9-5.3-5.9c-2,0-5.4,1.3-5.2,7.7v15.5h-7.4V657h7.4v2.6
				c1.8-2,4.9-3.2,7.3-3.2C900,656.5,902.8,661.4,902.8,669z"/>
			<path class="st3" d="M914.2,653.9c-2.3,0-4.2-1.9-4.2-4.3c0-2.4,1.9-4.3,4.2-4.3c2.2,0,4.1,1.9,4.1,4.3
				C918.2,652,916.4,653.9,914.2,653.9z M910.4,657.1h7.5v29.3h-7.5V657.1z"/>
			<path class="st3" d="M924,671.8c0-8.4,6.7-15.3,14.9-15.3c5.8,0,10.6,3,13.4,8.5l-6.7,2.8c-1.6-2.9-4-4.4-6.7-4.4
				c-4.3,0-7.5,3.5-7.5,8.3c0,4.8,3.2,8.3,7.5,8.3c2.7,0,5.2-1.2,6.9-4.3l6.3,2.7c-2.6,5.8-7,8.7-13.2,8.7
				C930.7,687.1,924,680.3,924,671.8z"/>
			<path class="st3" d="M978.3,683.5c-1.1,1.7-4.4,3.6-8.3,3.6c-8.6,0-13.7-6.9-13.7-15.3c0-8.4,5.1-15.3,13.7-15.3
				c4,0,6.9,1.7,8.3,3.7v-3h7.4v29.4h-7.4V683.5z M971.1,663.4c-4.7,0-7.5,3.5-7.5,8.3c0,4.6,2.9,8.3,7.5,8.3c4.6,0,7.5-3.2,7.5-8.3
				C978.6,666.8,975.7,663.4,971.1,663.4z"/>
		</g>
	</g>
	<path class="st3" d="M307.5,564c-11.2,20.6-24.4,39.8-39.3,57c-10.3,12-21.5,23.1-33.4,33.1c-11.8-10-23-21.1-33.4-33.1
		c-4.8-5.6-9.4-11.4-13.9-17.4c5.1,1,10.1,1.7,14.3,1.7c10.3,0,16.6-1.7,20.2-5.6c2-2.1,3.1-4.8,3-7.5v-20.4
		c14.8,8.4,18.3,9.4,20.9,9.6c2.1,0.2,4.2,0.3,6.4,0.3c9.5,0,27.9-2.2,44.3-16.6c7.4-6.5,12.6-14.9,15.2-24.2
		c0.3-1.1,0.6-2.1,0.8-3.1c1.9-0.3,3.8-1.1,5.2-2.5c0.6-0.5,3-2.9,6.1-5.9C319.1,541.3,313.6,552.8,307.5,564z"/>
	<path class="st3" d="M335.5,497.2c-0.1,0.3-0.2,0.6-0.3,0.9c-1.9-1.9-4.1-3.2-6.3-3.9l-118.5-53.8c-1.2-0.6-2.6-0.8-3.9-0.8
		c-0.2,0-0.4,0-0.6,0l-44.5,2.6c-2.9,0.2-5.4,1.6-7.1,3.9c-0.8-0.1-1.5-0.2-2.3-0.2c-8.8,0-13.7,7.5-14.2,14.9c0,0.2,0,0.4,0,0.5
		v20.1c0,3.5,2,6.8,5.1,8.4l5.6,2.9c0,0.1,0,0.3,0,0.4v21.8c0,3.2,1.6,6.1,4.2,7.9l11.7,7.8c0,0.2,0,0.4,0,0.5v8.8
		c0,2.2,0.8,4.3,2.1,6l-15.4-4.1c-6.6-14.4-12.2-29.5-16.9-44.7c-5.7-18.8-10-38.3-12.7-58.2c15.1-8,30.8-14.4,46.7-19
		c21.6-6.3,44-9.5,66.4-9.5c22.5,0,44.9,3.2,66.5,9.5c16,4.7,31.7,11.1,46.8,19.1C345.4,458.8,341.2,478.3,335.5,497.2z"/>
</g>
<g id="Paleta">
</g>
</svg>
