<?xml version="1.0" encoding="utf-8"?>
<!-- Generator: Adobe Illustrator 21.0.0, SVG Export Plug-In . SVG Version: 6.00 Build 0)  -->
<svg version="1.1" id="Capa_1" xmlns="http://www.w3.org/2000/svg" xmlns:xlink="http://www.w3.org/1999/xlink" x="0px" y="0px"
	 viewBox="0 0 500 500" style="enable-background:new 0 0 500 500;" xml:space="preserve">
<style type="text/css">
	.st0{fill:#FFFFFF;}
</style>
<g>
	<path class="st0" d="M47.2,334V166h39.2v142.5h42.5V334H47.2z"/>
	<path class="st0" d="M234,286.1c-0.9,35.6-13.2,51.2-49.8,51.2c-48.4,0-49.3-33.7-49.3-55V166h39.2v121c0,13.4,0,23.4,10.1,23.4
		c10.6,0,10.6-9.9,10.6-23.4V166H234V286.1z"/>
	<path class="st0" d="M304.2,226.2v-23.6c0-8.3-2.6-13-10.4-13c-8.5,0-10.4,4.7-10.4,13c0,28.3,59.9,36.6,59.9,88.5
		c0,31.6-17,46.2-49.8,46.2c-25,0-49.3-8.5-49.3-37.5v-31.1h39.2v29c0,9.9,3.1,12.7,10.4,12.7c6.4,0,10.4-2.8,10.4-12.7
		c0-38-59.9-38.7-59.9-92.9c0-30.4,20-42,50.2-42c26.4,0,48.8,9,48.8,37v26.4H304.2z"/>
	<path class="st0" d="M452.8,288.2c0,38.4-23.6,49.1-49.5,49.1c-25.9,0-49.5-10.6-49.5-49.1v-76.4c0-38.4,23.6-49.1,49.5-49.1
		c25.9,0,49.5,10.6,49.5,49.1V288.2z M392.9,297.2c0,6.8,2.1,13.2,10.4,13.2c8.3,0,10.4-6.4,10.4-13.2v-94.3
		c0-6.8-2.1-13.2-10.4-13.2c-8.3,0-10.4,6.4-10.4,13.2V297.2z"/>
</g>
</svg>
