<?xml version="1.0" encoding="utf-8"?>
<!-- Generator: Adobe Illustrator 21.0.0, SVG Export Plug-In . SVG Version: 6.00 Build 0)  -->
<svg version="1.1" id="Capa_1" xmlns="http://www.w3.org/2000/svg" xmlns:xlink="http://www.w3.org/1999/xlink" x="0px" y="0px"
	 viewBox="0 0 500 500" style="enable-background:new 0 0 500 500;" xml:space="preserve">
<style type="text/css">
	.st0{fill:#FFFFFF;}
</style>
<g>
	<path class="st0" d="M250,62.2C146.4,62.2,62.2,146.4,62.2,250c0,103.6,84.2,187.8,187.8,187.8c103.6,0,187.8-84.2,187.8-187.8
		C437.8,146.4,353.6,62.2,250,62.2z M250,82.2c92.5,0,167.8,75.3,167.8,167.8c0,92.5-75.3,167.8-167.8,167.8
		c-92.5,0-167.8-75.3-167.8-167.8C82.2,157.5,157.5,82.2,250,82.2z"/>
	<path class="st0" d="M196.5,365.3h6c3.9,0,7-3.1,7-7v-97.9c0.4,0,0.7,0,1.1,0c7.2,0.1,18,0.4,30.9-0.4h11.5l56.2,103.3
		c0.9,1.6,2.4,2.9,4.1,3.4c0.6,0.2,1.3,0.3,1.9,0.3c1.2,0,2.5-0.3,3.5-1l5.2-2.8c3.3-1.7,4.6-5.9,2.9-9.4l-54.9-101
		c8.4-3.3,15.7-7.5,21.6-12.7C306.5,229,313,213.8,313,195c0-18.2-6.4-32.7-19.1-43.1c-31-25.3-89.7-14.5-96.4-13.1l-2.5,0.5
		c-3.2,0.7-5.5,3.6-5.5,6.9v212.1C189.5,362.2,192.6,365.3,196.5,365.3z M280.4,225.2c-8.8,7.8-22.3,12.8-40.1,14.8h-30.8v-82.9
		c14.7-2,52.6-5.3,71.7,10.3c8,6.6,11.7,15.4,11.7,27.6C292.9,207.7,288.7,217.8,280.4,225.2z"/>
</g>
</svg>
