<?xml version="1.0" encoding="utf-8"?>
<!-- Generator: Adobe Illustrator 21.0.0, SVG Export Plug-In . SVG Version: 6.00 Build 0)  -->
<svg version="1.1" id="Capa_1" xmlns="http://www.w3.org/2000/svg" xmlns:xlink="http://www.w3.org/1999/xlink" x="0px" y="0px"
	 viewBox="0 0 500 500" style="enable-background:new 0 0 500 500;" xml:space="preserve">
<style type="text/css">
	.st0{fill:#FFFFFF;}
</style>
<g>
	<path class="st0" d="M348.3,197.9l-113.9-65.7c-2.8-1.6-6.4,0.4-6.4,3.7v67.5v87v67.5c0,3.3,3.5,5.3,6.4,3.7l113.9-65.7
		c1.3-0.8,2.1-2.2,2.1-3.7v-90.6C350.4,200,349.6,198.6,348.3,197.9z"/>
	<path class="st0" d="M421.8,199.1h-61.5c-1.2,0-2.1,1-2.1,2.1v91.2c0,1.2,1,2.1,2.1,2.1h61.5c2.3,0,4.2-1.9,4.2-4.2v-87
		C426,201,424.1,199.1,421.8,199.1z"/>
</g>
<path class="st0" d="M145.7,244.7l46.2-46.2c1.5-1.5,1.5-3.9,0-5.4l-12.5-12.5c-1.5-1.5-3.9-1.5-5.4,0l-46.2,46.2
	c-1.2,1.2-3.1,1.2-4.2,0l-46.2-46.2c-1.5-1.5-3.9-1.5-5.4,0l-12.5,12.5c-1.5,1.5-1.5,3.9,0,5.4l46.2,46.2c1.2,1.2,1.2,3.1,0,4.2
	l-46.2,46.2c-1.5,1.5-1.5,3.9,0,5.4L72,313c1.5,1.5,3.9,1.5,5.4,0l46.2-46.2c1.2-1.2,3.1-1.2,4.2,0l46.2,46.2c1.5,1.5,3.9,1.5,5.4,0
	l12.5-12.5c1.5-1.5,1.5-3.9,0-5.4l-46.2-46.2C144.5,247.8,144.5,245.9,145.7,244.7z"/>
</svg>
