<?xml version="1.0" encoding="utf-8"?>
<!-- Generator: Adobe Illustrator 21.0.0, SVG Export Plug-In . SVG Version: 6.00 Build 0)  -->
<svg version="1.1" id="Capa_1" xmlns="http://www.w3.org/2000/svg" xmlns:xlink="http://www.w3.org/1999/xlink" x="0px" y="0px"
	 viewBox="0 0 500 500" style="enable-background:new 0 0 500 500;" xml:space="preserve">
<style type="text/css">
	.st0{fill:#FFFFFF;}
</style>
<path class="st0" d="M315.6,287.3l29.6-17.1l26.8,15.5c12.5,7.2,28-1.8,28-16.2v-70.1c0-14.4-15.6-23.4-28-16.2l-26.8,15.5l-3-1.7
	l89.8-89.8c5.1-5.1,5.1-13.3,0-18.4c-5.1-5.1-13.3-5.1-18.4,0l-94.8,94.8l-89.9-51.9c-19.9-11.5-43.8-2.4-52.7,16.4L117,88.8
	c-5.1-5.1-13.3-5.1-18.4,0c-5.1,5.1-5.1,13.3,0,18.4l74,74v123.7c0,7.3,2,13.9,5.4,19.5l-79.4,79.4c-5.1,5.1-5.1,13.3,0,18.4
	c2.5,2.5,5.9,3.8,9.2,3.8s6.7-1.3,9.2-3.8l81.6-81.6c9.5,3.1,20.4,2.5,30.3-3.2l63.3-36.6l121.4,121.4c2.5,2.5,5.9,3.8,9.2,3.8
	s6.7-1.3,9.2-3.8c5.1-5.1,5.1-13.3,0-18.4L315.6,287.3z"/>
<g>
	<path class="st0" d="M116.8,322.6c-2,0-4.1-0.5-6-1.6c-31.3-18-50-50.3-50-86.5c0-36.1,18.7-68.5,50-86.5
		c5.8-3.3,13.1-1.3,16.5,4.4c3.3,5.8,1.3,13.1-4.4,16.5C99.1,182.6,85,207.1,85,234.5s14.2,51.9,37.9,65.6
		c5.8,3.3,7.8,10.7,4.4,16.5C125.1,320.4,121,322.6,116.8,322.6z"/>
</g>
</svg>
