<?xml version="1.0" encoding="utf-8"?>
<!-- Generator: Adobe Illustrator 21.0.0, SVG Export Plug-In . SVG Version: 6.00 Build 0)  -->
<svg version="1.1" id="Capa_1" xmlns="http://www.w3.org/2000/svg" xmlns:xlink="http://www.w3.org/1999/xlink" x="0px" y="0px"
	 viewBox="0 0 500 500" style="enable-background:new 0 0 500 500;" xml:space="preserve">
<style type="text/css">
	.st0{fill:#FFFFFF;}
</style>
<g>
	<path class="st0" d="M220.7,413H114.3c-3.3,0-6-2.7-6-6V93c0-3.3,2.7-6,6-6h106.4c3.3,0,6,2.7,6,6v314
		C226.7,410.3,224,413,220.7,413z"/>
	<path class="st0" d="M385.7,413H279.3c-3.3,0-6-2.7-6-6V93c0-3.3,2.7-6,6-6h106.4c3.3,0,6,2.7,6,6v314
		C391.7,410.3,389,413,385.7,413z"/>
</g>
</svg>
