<?xml version="1.0" encoding="utf-8"?>
<!-- Generator: Adobe Illustrator 21.0.0, SVG Export Plug-In . SVG Version: 6.00 Build 0)  -->
<svg version="1.1" id="Capa_1" xmlns="http://www.w3.org/2000/svg" xmlns:xlink="http://www.w3.org/1999/xlink" x="0px" y="0px"
	 viewBox="0 0 500 500" style="enable-background:new 0 0 500 500;" xml:space="preserve">
<style type="text/css">
	.st0{fill:#FFFFFF;}
</style>
<g>
	<path class="st0" d="M458,406.5h-4.7v-310c0-8.7-5.8-15.5-13.3-15.5h-68.2c-7.5,0-13.3,6.8-13.3,15.5v310h-9V179
		c0-7.7-6-14-13.3-14H268c-7.3,0-13.3,6.3-13.3,14v227.5h-9V263.4c0-6.8-6-12.4-13.3-12.4h-68.2c-7.5,0-13.3,5.4-13.3,12.4v143.1h-9
		V335c0-6.4-5.6-11-13.3-11H60.1c-7.8,0-13.3,4.5-13.3,11v71.5H42c-3.4,0-6,2.6-6,6v8c0,3.4,2.6,6,6,6h416c3.4,0,6-2.6,6-6v-8
		C464,409.1,461.4,406.5,458,406.5z M122.6,343v63.5H65.7V343H122.6z M226.5,270v136.5h-56.9V270H226.5z M330.4,184v222.5h-56.9V184
		H330.4z M434.3,100v306.5h-56.9l0-306.5H434.3z"/>
	<path class="st0" d="M67.8,274.7c1,1.3,2.6,2.1,4.3,2.2c0.1,0,0.3,0,0.4,0c1.4,0,2.8-0.5,3.9-1.5l194.1-157.3v9.8c0,3.4,2.6,6,6,6
		h8c3.4,0,6-2.6,6-6V90.5c0-3.4-2.6-6-6-6H248c-3.4,0-6,2.6-6,6v8c0,3.4,2.6,6,6,6h7.7l-192,155.6c-1.3,1-2.1,2.6-2.2,4.2
		c-0.1,1.6,0.4,3.1,1.4,4.3L67.8,274.7z"/>
</g>
</svg>
