<?xml version="1.0" encoding="utf-8"?>
<!-- Generator: Adobe Illustrator 21.0.0, SVG Export Plug-In . SVG Version: 6.00 Build 0)  -->
<svg version="1.1" id="Capa_1" xmlns="http://www.w3.org/2000/svg" xmlns:xlink="http://www.w3.org/1999/xlink" x="0px" y="0px"
	 viewBox="0 0 500 500" style="enable-background:new 0 0 500 500;" xml:space="preserve">
<style type="text/css">
	.st0{fill:#FFFFFF;}
</style>
<path class="st0" d="M444,198.3l-26.8,15.5l-116.3-67.1c-25-14.5-56.3,3.6-56.3,32.5v140.7c0,28.9,31.3,46.9,56.3,32.5l116.3-67.1
	l26.8,15.5c12.5,7.2,28-1.8,28-16.2v-70.1C472,200.1,456.4,191.1,444,198.3z"/>
<g>
	<g>
		<path class="st0" d="M188.8,337.6c-2,0-4.1-0.5-6-1.6c-31.3-18-50-50.3-50-86.5c0-36.1,18.7-68.5,50-86.5
			c5.8-3.3,13.1-1.3,16.5,4.4c3.3,5.8,1.3,13.1-4.4,16.5c-23.7,13.6-37.9,38.2-37.9,65.6s14.2,51.9,37.9,65.6
			c5.8,3.3,7.8,10.7,4.4,16.5C197.1,335.4,193,337.6,188.8,337.6z"/>
	</g>
	<g>
		<path class="st0" d="M163.3,384.9c-2,0-4.1-0.5-6-1.6C108.9,355.4,80,305.4,80,249.5c0-55.9,28.9-105.9,77.4-133.8
			c5.8-3.3,13.1-1.3,16.5,4.4c3.3,5.8,1.3,13.1-4.4,16.5c-40.9,23.5-65.3,65.7-65.3,112.9c0,47.2,24.4,89.4,65.3,112.9
			c5.8,3.3,7.8,10.7,4.4,16.5C171.6,382.7,167.5,384.9,163.3,384.9z"/>
	</g>
	<g>
		<path class="st0" d="M137.8,432.2c-2,0-4.1-0.5-6-1.6C66.2,392.9,27.1,325.2,27.1,249.5c0-75.7,39.1-143.4,104.7-181.1
			c5.8-3.3,13.1-1.3,16.5,4.4c3.3,5.8,1.3,13.1-4.4,16.5c-58,33.3-92.6,93.2-92.6,160.2c0,67,34.6,126.9,92.6,160.2
			c5.8,3.3,7.8,10.7,4.4,16.5C146,430,142,432.2,137.8,432.2z"/>
	</g>
</g>
</svg>
