<?xml version="1.0" encoding="utf-8"?>
<!-- Generator: Adobe Illustrator 21.0.0, SVG Export Plug-In . SVG Version: 6.00 Build 0)  -->
<svg version="1.1" id="Capa_1" xmlns="http://www.w3.org/2000/svg" xmlns:xlink="http://www.w3.org/1999/xlink" x="0px" y="0px"
	 viewBox="0 0 500 500" style="enable-background:new 0 0 500 500;" xml:space="preserve">
<style type="text/css">
	.st0{fill:#FFFFFF;}
</style>
<g>
	<g>
		<path class="st0" d="M358.5,201l-113.9-65.7c-2.8-1.6-6.4,0.4-6.4,3.7v67.5v87V361c0,3.3,3.5,5.3,6.4,3.7L358.5,299
			c1.3-0.8,2.1-2.2,2.1-3.7v-90.6C360.6,203.2,359.8,201.8,358.5,201z"/>
		<path class="st0" d="M432,202.3h-61.5c-1.2,0-2.1,1-2.1,2.1v91.2c0,1.2,1,2.1,2.1,2.1H432c2.3,0,4.2-1.9,4.2-4.2v-87
			C436.2,204.2,434.3,202.3,432,202.3z"/>
	</g>
	<g>
		<path class="st0" d="M183.9,249.3c0-17,7.4-32.4,19.1-43.1c1.2-1.1,1.3-2.9,0.3-4.1l-8.8-10.9c-1.1-1.3-3.1-1.5-4.3-0.4
			c-16.1,14.3-26.3,35.2-26.3,58.5c0,23.8,10.7,45.1,27.5,59.5c1.3,1.1,3.2,0.9,4.3-0.4l8.8-10.9c1-1.3,0.8-3.1-0.4-4.1
			C191.7,282.6,183.9,266.8,183.9,249.3z"/>
		<path class="st0" d="M136.2,249.9c0-32.2,14.4-61,37.1-80.4c1.2-1,1.4-2.9,0.4-4.1l-8.8-10.9c-1.1-1.3-3-1.5-4.3-0.4
			c-27.2,23.1-44.4,57.5-44.4,95.9c0,38.6,17.5,73.3,45,96.4c1.3,1.1,3.2,0.9,4.3-0.4l8.8-10.9c1-1.3,0.8-3.1-0.4-4.1
			C150.9,311.4,136.2,282.3,136.2,249.9z"/>
		<path class="st0" d="M88.6,250.5c0-47.3,21.5-89.6,55.2-117.8c1.3-1.1,1.5-2.9,0.4-4.2l-8.8-10.9c-1-1.3-3-1.5-4.2-0.4
			C93,149,68.6,197,68.6,250.5c0,53.5,24.4,101.5,62.6,133.3c1.3,1.1,3.2,0.9,4.2-0.4l8.8-10.9c1-1.3,0.8-3.1-0.4-4.2
			C110.1,340.1,88.6,297.7,88.6,250.5z"/>
	</g>
</g>
</svg>
